<?xml version="1.0" encoding="UTF-8"?>
<svg id="Camada_1" data-name="Camada 1" xmlns="http://www.w3.org/2000/svg" viewBox="0 0 328.77 241.64">
  <defs>
    <style>
      .cls-1 {
        fill: #fff;
      }
    </style>
  </defs>
  <path class="cls-1" d="m287.57,73.83c-3.42-.96-5.46-4.44-4.74-7.92,8.75-42.02-39.8-73.41-74.55-47.95-2.43,1.79-5.78,1.64-8.13-.25-11.93-9.61-29.96-11.59-43.74-4.51-2.45,1.26-5.4,1.02-7.52-.74C123.36-8.78,83.05-1.97,65.78,26.1c-1.37,2.24-3.94,3.4-6.55,3.12-28.97-3.11-52.19,26.18-42.54,53.66.82,2.34.3,4.96-1.4,6.77C5.81,99.79,0,113.4,0,128.37h.01c0,15.08,5.9,28.8,15.53,38.96-2.79,5.34-6.33,10.31-10.56,14.75-4.43,4.67-1.95,12.44,4.37,13.65,12.46,2.39,25.79,0,36.53-6.78.99-.63,2.06-1.02,3.15-1.2,9.56,17.59,28.13,29.56,49.53,29.66.04,0,.07,0,.11,0,2.44,9.19,12.71,16.93,25.8,18.5,7.27.87,14.15-.31,19.61-2.96,1.76-.86,3.82-.7,5.48.34,26.84,16.83,64.69,7.44,79.82-21.14,1.11-2.09,3.28-3.38,5.64-3.52,16.66-1.01,31.45-9.31,41.13-21.7,1.04-1.33,2.55-2.23,4.22-2.49,61.37-9.62,65.08-94.35,7.21-110.61Z"/>
</svg>