<?xml version="1.0" encoding="UTF-8"?>
<svg id="Camada_1" data-name="Camada 1" xmlns="http://www.w3.org/2000/svg" xmlns:xlink="http://www.w3.org/1999/xlink" viewBox="0 0 445.44 758.46">
  <defs>
    <style>
      .cls-1, .cls-2, .cls-3, .cls-4 {
        fill: none;
      }

      .cls-5 {
        clip-path: url(#clippath);
      }

      .cls-6 {
        opacity: .05;
      }

      .cls-7 {
        opacity: .1;
      }

      .cls-8 {
        fill: #f9b653;
      }

      .cls-9 {
        fill: #683b11;
      }

      .cls-10 {
        fill: #f5ad89;
      }

      .cls-11 {
        fill: #fdc629;
      }

      .cls-12 {
        fill: #fff;
      }

      .cls-13 {
        fill: #f3986e;
      }

      .cls-14 {
        fill: #312782;
      }

      .cls-15 {
        fill: #a6a5a5;
      }

      .cls-16 {
        fill: #c5661d;
      }

      .cls-17 {
        fill: #dbdbdb;
      }

      .cls-18 {
        fill: #e0e0e0;
      }

      .cls-19 {
        fill: #c8c7c7;
      }

      .cls-20 {
        fill: #455a64;
      }

      .cls-21 {
        fill: #263239;
      }

      .cls-2, .cls-3 {
        stroke-linecap: round;
        stroke-width: 2px;
      }

      .cls-2, .cls-3, .cls-4 {
        stroke: #263239;
      }

      .cls-2, .cls-4 {
        stroke-miterlimit: 10;
      }

      .cls-3 {
        stroke-linejoin: round;
      }

      .cls-22 {
        opacity: .2;
      }

      .cls-23 {
        opacity: .4;
      }

      .cls-24 {
        opacity: .6;
      }

      .cls-25 {
        opacity: .5;
      }

      .cls-26 {
        opacity: .8;
      }

      .cls-27 {
        opacity: .7;
      }
    </style>
    <clipPath id="clippath">
      <rect class="cls-1" x="63.58" width="200.7" height="192.71"/>
    </clipPath>
  </defs>
  <g class="cls-5">
    <g>
      <g>
        <path class="cls-21" d="m198.12,695.94l-1.71,31.12c-.12,2.2,1.16,4.23,3.19,5.07.58.24,1.22.51,1.92.8,10.72,4.5,7.36,20.49-4.27,20.27l-33.51-.63c-2.85-.05-5.12-2.4-5.08-5.25l.72-52.34c.04-2.87,2.41-5.17,5.29-5.1l28.39.61c2.93.06,5.22,2.54,5.06,5.46Z"/>
        <path class="cls-18" d="m172.16,726.92c-1.52.38-2.59,2.06-2.27,3.59.32,1.53,2.02,2.64,3.54,2.28,1.52-.36,2.88-2.33,2.39-3.82-.49-1.49-2.55-2.68-3.95-1.97"/>
        <path class="cls-12" d="m197.49,730.38c-.02.38-1.93.52-3.83,1.71-1.93,1.14-2.93,2.77-3.27,2.61-.35-.08.26-2.35,2.58-3.75,2.31-1.42,4.6-.92,4.51-.57Z"/>
        <path class="cls-12" d="m205.6,733.92c.08.37-1.58.99-2.91,2.57-1.37,1.55-1.73,3.28-2.11,3.26-.36.05-.58-2.18,1.1-4.12,1.67-1.96,3.91-2.07,3.91-1.71Z"/>
        <path class="cls-12" d="m210.07,743.8c-.35.07-.84-1.84.18-3.91,1-2.08,2.81-2.86,2.97-2.54.21.32-.97,1.41-1.78,3.13-.85,1.69-.99,3.29-1.37,3.32Z"/>
        <path class="cls-12" d="m196.97,721.17c-.17.34-1.9-.21-4.06-.11-2.16.06-3.85.75-4.04.42-.22-.28,1.45-1.66,3.99-1.75,2.54-.11,4.3,1.14,4.11,1.43Z"/>
      </g>
      <g>
        <g>
          <path class="cls-10" d="m145.59,167.49l13.53-85.86c3.59-20.92,18.76-36.27,39.57-32.09l1.9.5c19.13,5.01,31.21,23.86,27.76,43.33-3.22,18.12-7,38.09-9.61,47.58-5.4,19.64-25.91,17.54-25.91,17.54-.05,0-3.78,18.72-3.78,18.72l.55,14.03-32.15.67-11.86-24.4Z"/>
          <path class="cls-13" d="m192.84,158.48s-12.61-2.52-23.67-14.3c0,0,2.29,16.43,22.42,19.8l1.25-5.5Z"/>
          <path class="cls-10" d="m156.91,96.63c-.3-.23-12.49-7.55-15.59,6.03-3.1,13.58,12.8,14.19,12.91,13.8.11-.38,2.67-19.83,2.67-19.83Z"/>
          <path class="cls-13" d="m149.64,110.08c-.05-.06-.27.11-.72.2-.43.09-1.13.06-1.78-.37-1.31-.85-2-3.41-1.51-5.87.25-1.24.78-2.36,1.43-3.24.64-.9,1.44-1.45,2.19-1.41.76,0,1.17.55,1.25.97.1.42-.05.67.01.71.03.04.34-.16.36-.75,0-.28-.08-.64-.34-.97-.26-.34-.71-.58-1.23-.64-1.06-.17-2.23.58-2.95,1.54-.78.95-1.41,2.2-1.68,3.6-.54,2.76.28,5.64,2.11,6.65.9.47,1.76.36,2.25.13.5-.24.64-.53.6-.56Z"/>
          <path class="cls-20" d="m246.61,75.56s-.28.15-.83.33c-.54.19-1.35.4-2.36.59-1.01.19-2.23.31-3.59.33-1.36,0-2.86-.12-4.4-.42-1.54-.31-2.97-.77-4.23-1.28-1.25-.53-2.34-1.1-3.2-1.66-.86-.55-1.53-1.05-1.96-1.44-.43-.38-.66-.6-.64-.62.06-.07,1.02.75,2.77,1.77.87.52,1.95,1.05,3.19,1.55,1.25.48,2.65.92,4.16,1.22,1.51.29,2.98.42,4.31.45,1.33,0,2.54-.07,3.54-.22,2-.28,3.21-.67,3.24-.59Z"/>
          <path class="cls-20" d="m168.2,69.31c.05,0,.04.48-.09,1.32-.13.84-.38,2.06-.85,3.54-.27.75-.44,1.52-.96,2.42-.25.44-.91.9-1.58.7-.64-.19-1.02-.65-1.35-1.08-1.2-1.72-2.5-3.59-3.88-5.57l.81-.26c.02.99.04,2.02.07,3.08.04,2.88.08,5.63.12,8.14l.02,1.36-.77-1.12c-2.03-2.98-3.26-5.8-3.95-7.83-.69-2.03-.89-3.27-.81-3.29.23-.1,1.35,4.87,5.43,10.65l-.74.24c-.06-2.51-.13-5.25-.2-8.14-.02-1.05-.04-2.09-.06-3.08l-.03-1.49.83,1.23c1.34,1.99,2.61,3.87,3.78,5.61.27.39.6.73.91.82.3.09.59-.06.82-.38.42-.66.7-1.54.98-2.22,1.05-2.86,1.36-4.7,1.49-4.67Z"/>
          <path class="cls-13" d="m196.08,138.8c-.33-.07-13.52-8.86-13.52-8.86,0,0-6,7.43-1.78,12.36,4.22,4.94,10.89,3.86,12.37,1.79,1.48-2.07,2.93-5.29,2.93-5.29Z"/>
          <path class="cls-21" d="m191.25,145.36c-.06-.12-.78.28-2.17.2-1.36-.04-3.38-.52-5.57-1.56l.04.02c-1.39-.92-2.89-2.19-3.53-4.06-.63-1.86-.23-4.13.79-6.19.61-1.25,1.38-2.43,2.21-3.41l-.79.1c4.02,2.6,7.56,4.84,10.12,6.39,2.56,1.55,4.14,2.42,4.23,2.3.08-.13-1.34-1.23-3.79-2.96-2.44-1.73-5.9-4.1-9.89-6.75l-.45-.3-.35.4c-.95,1.1-1.75,2.31-2.42,3.68-1.11,2.22-1.6,4.88-.79,7.12.83,2.25,2.62,3.62,4.15,4.53h.02s.01.02.01.02c2.4,1.02,4.52,1.36,6.01,1.23,1.51-.1,2.2-.72,2.15-.76Z"/>
          <path class="cls-21" d="m253.22,60.17c-1.28-.98-2.44-2.1-3.59-3.24-3.36-3.3-7.95-5.35-13.03-5.35h0c-1.01,0-2.01-.29-2.86-.84-10.02-6.47-5.56-13.1-13.07-13.1-.16,0-.32,0-.47,0-2.38.08-4.66-.66-6.69-1.9-1.53-.93-3.33-1.47-5.25-1.47-.25,0-.5,0-.74.03l-8.26-1.31c-1.33-.65-2.82-1.01-4.4-1.01-1.34,0-2.62.26-3.78.73-2.68,1.08-5.54,1.78-8.42,1.59-.22-.01-.44-.02-.67-.02-1.22,0-2.38.22-3.46.61-1.76.64-3.65.72-5.52.54-.21-.02-.41-.03-.63-.03-.3,0-.65.05-1.01.14-1.83.41-3.72.46-5.56.14-.9-.16-1.83-.28-2.54-.28-9.75,0-17.66,7.9-17.66,17.66,0,2.05.35,4.03,1,5.86.65,1.84.95,3.78,1,5.73.02.77.08,1.57.19,2.36.26,2.02-.05,4.05-.66,5.99-.31.96-.47,1.99-.47,3.06,0,.12,0,.24,0,.37.07,1.89-.43,3.73-1.3,5.41-.72,1.39-1.13,2.98-1.13,4.66,0,3.4,1.67,6.4,4.24,8.24,1.61,1.16,3.16,2.4,4.5,3.86,1.98,2.15,4.87,3.43,8.07,3.24,3.72-.23,6.98-2.64,8.56-6.01.49-1.04.77-2.05.88-3.02.25-2.08.83-4.14,2.1-5.81,1.29-1.7,2.06-3.82,2.06-6.12v-.06c0-2.11.9-4.08,2.36-5.61,1.73-1.81,2.79-4.26,2.79-6.97,0-.26-.02-.51-.04-.77,1.19.49,2.49.77,3.86.77,1.27,0,2.48-.23,3.59-.66,2.05-.78,4.24-1.13,6.44-1.12h1.21c.97,0,1.9-.13,2.79-.39,1.79-.51,3.71-.26,5.32.67l.08.04c1.89,1.09,3.04,3.09,3.03,5.26v.16c-.01,5.6,4.53,10.14,10.13,10.14h.03c.81.55,1.64,1.1,2.45,1.65,1.46,3.81,5.14,6.51,9.46,6.51h.03c2,0,3.99.41,5.8,1.27,5.89,2.79,13.46,2.6,20.85-2.7.52-.38.99-.85,1.36-1.37,7.49-10.66,4.47-21.8-2.94-27.5Z"/>
        </g>
        <g>
          <path class="cls-21" d="m215.01,110c-.34,1.53-1.91,2.51-3.5,2.19-1.58-.33-2.59-1.83-2.25-3.36.34-1.53,1.91-2.51,3.49-2.19,1.59.33,2.6,1.83,2.25,3.37Z"/>
          <path class="cls-21" d="m219.44,107.81c-.45.28-2.18-1.9-5.24-2.69-3.04-.84-5.7.17-5.94-.3-.12-.21.42-.79,1.58-1.26,1.15-.46,2.97-.73,4.87-.22,1.9.51,3.32,1.64,4.05,2.61.75.98.89,1.74.67,1.86Z"/>
          <path class="cls-21" d="m187.47,102.55c-.34,1.53-1.91,2.51-3.5,2.18-1.58-.32-2.59-1.83-2.25-3.36.34-1.53,1.91-2.51,3.5-2.19,1.59.33,2.6,1.83,2.25,3.37Z"/>
          <path class="cls-21" d="m190.42,97.64c-.45.28-2.18-1.9-5.24-2.69-3.04-.84-5.7.17-5.94-.3-.12-.21.41-.79,1.58-1.26,1.15-.47,2.97-.73,4.87-.23,1.9.51,3.32,1.64,4.05,2.61.75.98.89,1.74.67,1.86Z"/>
          <path class="cls-21" d="m193.64,87.92c-.62.68-3.37-.93-6.96-1.95-3.57-1.1-6.75-1.25-6.9-2.16-.06-.43.74-.98,2.18-1.29,1.43-.31,3.5-.3,5.65.33,2.14.64,3.89,1.76,4.92,2.8,1.04,1.04,1.41,1.94,1.13,2.27Z"/>
          <path class="cls-21" d="m223.09,91.58c-.81.55-3.13-.8-6.13-1.57-2.97-.86-5.66-.89-6.07-1.78-.17-.42.41-1.03,1.68-1.42,1.26-.4,3.23-.49,5.28.07,2.05.56,3.68,1.65,4.55,2.63.88.99,1.05,1.8.69,2.08Z"/>
        </g>
        <polygon class="cls-4" points="176.94 86.48 196.79 94.46 190.51 112.25 170.53 104.76 176.94 86.48"/>
        <polygon class="cls-4" points="206.47 97.96 226.33 105.93 220.04 123.72 200.06 116.23 206.47 97.96"/>
        <polyline class="cls-13" points="194.84 116.54 196.79 125.58 188.42 123.72"/>
        <line class="cls-2" x1="193.73" y1="103.06" x2="203.01" y2="107.84"/>
        <line class="cls-3" x1="143.94" y1="98.39" x2="174.14" y2="94.32"/>
      </g>
      <path class="cls-9" d="m2.15,398.19c8.94-20.14,98.66-221.98,105.99-226.26l17.26,7.3L9.69,418.54c-.39.8-1.55.73-1.84-.11l-5.85-16.96c-.37-1.08-.32-2.25.14-3.29Z"/>
      <g>
        <path class="cls-12" d="m115.03,159.06l32.19.19c0,1.77,26.16,21.43,44.42,8.09,0,0,12.91,3.42,13.14,3.48.99.3,11.9,4.5,16.97,9.57,5.07,5.07-9.69,135.89-9.69,135.89l8.39,73.24c-139.8,36.1-135.32-10.28-141.38-33.33l15.38-112.96c-.03-.98,5.48-31.42,5.48-31.42l15.1-52.75Z"/>
        <path class="cls-22" d="m203.44,304.64s7.49-111.98,2.54-127.7c0,0,8.94,27.81,16.07,56.73,7.13,28.92-4.28,87.44-4.28,87.44l-7.01.19-7.32-16.67Z"/>
        <path class="cls-21" d="m161.78,288.48c.02.06-.96.48-2.77,1.16-1.81.67-4.46,1.58-7.78,2.56-1.66.49-3.48,1-5.45,1.5-1.97.56-4.4.73-6.61-.32-1.09-.51-2.15-1.33-2.71-2.57-.31-.6-.37-1.33-.29-2.02.14-.69.45-1.34.9-1.86.44-.53.99-.93,1.54-1.31.54-.33,1.09-.66,1.64-.99,1.1-.66,2.24-1.31,3.39-1.96,9.24-5.14,18.06-8.86,24.43-11.51,3.19-1.31,5.79-2.33,7.6-3.02,1.8-.69,2.81-1.04,2.84-.97.02.06-.94.53-2.7,1.32-1.92.84-4.43,1.96-7.48,3.3-6.3,2.8-15.05,6.61-24.23,11.72-1.14.64-2.27,1.28-3.37,1.94-1.09.68-2.25,1.23-2.95,2.09-.76.83-.94,1.97-.49,2.92.42.96,1.3,1.69,2.26,2.15,1.96.94,4.13.85,6.04.34,1.97-.47,3.8-.94,5.46-1.39,3.33-.89,6-1.7,7.84-2.26,1.84-.56,2.87-.87,2.89-.8Z"/>
      </g>
      <g>
        <g>
          <path class="cls-10" d="m219.2,195.21c.05,1.64,28.23,90.09,28.23,90.09l59.34,21.97-33.48,17.03s-39.83-1.23-46.2-8.23c-6.38-7-28.12-84.53-28.12-84.53l20.23-36.33Z"/>
          <path class="cls-13" d="m242.74,289.85c.16.23-2.16,2-4.62,4.58-2.48,2.56-4.16,4.94-4.4,4.79-.22-.12,1.15-2.8,3.71-5.45,2.55-2.66,5.17-4.13,5.3-3.92Z"/>
        </g>
        <path class="cls-12" d="m217.75,178.1s8.89,1.68,16.47,23.36c7.58,21.69,13.32,54.35,13.32,54.35l-35.68,26.14-17.78-66.42,23.67-37.44Z"/>
      </g>
      <path class="cls-9" d="m203.44,170.69s8.98,37.36,9.33,61.81c.67,46.71-3.12,110.65-3.12,110.65l15.22,10.81s3.54-31.31,4.17-55.54c.66-25.58.45-112.3-8.61-119.49-5.99-4.75-11.37-7.18-16.98-8.25Z"/>
      <g>
        <g>
          <path class="cls-21" d="m61.69,701.21l1.71,31.12c.12,2.2-1.16,4.23-3.19,5.07-.58.24-1.22.51-1.92.8-10.72,4.5-7.36,20.49,4.27,20.27l33.51-.63c2.85-.05,5.12-2.4,5.08-5.25l-.72-52.34c-.04-2.87-2.41-5.17-5.29-5.1l-28.39.61c-2.93.06-5.22,2.54-5.06,5.46Z"/>
          <path class="cls-18" d="m87.65,732.18c1.52.38,2.59,2.06,2.27,3.59-.32,1.53-2.02,2.64-3.54,2.28-1.52-.36-2.88-2.33-2.39-3.82.49-1.49,2.55-2.68,3.95-1.97"/>
          <path class="cls-12" d="m62.32,735.64c.02.38,1.93.52,3.83,1.71,1.93,1.14,2.93,2.77,3.27,2.61.35-.08-.26-2.35-2.58-3.75-2.31-1.42-4.6-.92-4.51-.57Z"/>
          <path class="cls-12" d="m54.21,739.18c-.08.37,1.58.99,2.91,2.57,1.37,1.55,1.73,3.28,2.11,3.26.36.05.58-2.18-1.1-4.12-1.67-1.96-3.91-2.07-3.91-1.71Z"/>
          <path class="cls-12" d="m62.84,726.44c.17.34,1.9-.21,4.06-.11,2.16.06,3.85.75,4.04.42.22-.28-1.45-1.66-3.99-1.75-2.54-.11-4.3,1.14-4.11,1.43Z"/>
        </g>
        <path class="cls-14" d="m217.4,366.33s6.56,22.73,5.2,50.68c-.26,5.27,1.41,95.95-2.12,160.28-3.43,62.62-16.44,139.71-16.44,139.71l-52.53,2.73,12.73-144.67-13.44-127.26-4,.99s-17.8,113.99-19.44,133.43c-1.48,17.47-20.41,136.39-20.41,136.39l-50.76,2.04c2.35-65.64,4.99-113.51,9.64-153.32l12.18-161.08,4.97-46.93,134.41,7Z"/>
        <g>
          <path class="cls-20" d="m148.95,428.77s.09.14.33.33c.25.17.64.4,1.21.53,1.12.29,2.97.07,4.63-1.24,1.73-1.29,2.72-3.79,3-6.44.28-2.68.25-5.56.36-8.6.16-6.08.25-11.59.27-15.58.02-3.99-.04-6.46-.17-6.46-.13,0-.32,2.46-.51,6.44-.19,3.98-.39,9.49-.55,15.57-.11,3.03-.06,5.96-.28,8.53-.23,2.55-1.08,4.82-2.56,6.02-1.45,1.25-3.1,1.55-4.14,1.39-1.07-.14-1.56-.58-1.61-.49Z"/>
          <path class="cls-20" d="m77.91,402.52c-.01.06.48.24,1.39.46.91.22,2.26.45,3.95.55,3.35.22,8.14-.23,12.91-2.3,4.77-2.07,8.37-5.27,10.49-7.87,1.07-1.3,1.83-2.44,2.29-3.26.46-.82.67-1.3.61-1.33-.14-.09-1.19,1.71-3.42,4.15-2.21,2.43-5.75,5.44-10.36,7.44-4.61,2-9.22,2.55-12.5,2.5-3.3-.03-5.33-.49-5.36-.33Z"/>
          <path class="cls-20" d="m198.81,385.97c-.1.01.04,1.93.88,4.92.84,2.98,2.52,6.98,5.26,10.86,2.75,3.88,5.95,6.8,8.47,8.59,2.53,1.8,4.29,2.57,4.34,2.48.22-.26-6.68-3.94-12.03-11.62-5.45-7.61-6.61-15.34-6.92-15.22Z"/>
        </g>
        <g class="cls-23">
          <path d="m70.49,490.06c17.71,6.66,44.6-2.41,58.59-15.15,13.98-12.74,22.78-30.05,31.27-46.95,14.57,3.21,30.2,1.38,43.64-5.1,5.41-2.61,10.64-6.12,13.71-11.29,3.07-5.17,3.46-12.26-.35-16.91-3.83-4.68-11.3-6.6-12.66-12.49-.8-3.46,1.04-7.1,3.72-9.42,2.68-2.32,6.45-3.45,9.79-4.67l-1.42-10.66-144.34,109.1-1.94,23.54Z"/>
        </g>
        <path class="cls-20" d="m112.44,577.31c.12.23-7.9,4.76-17.91,10.12-10.02,5.36-18.24,9.51-18.36,9.28-.12-.23,7.9-4.76,17.92-10.12,10.02-5.36,18.24-9.51,18.36-9.28Z"/>
      </g>
      <g>
        <g>
          <g>
            <path class="cls-11" d="m96.83,476.9c-39.85,16.7-70.21-18.64-85.77-55.77-15.56-37.13-19.46-83.56,20.39-100.26,40.26-16.87,69.53,2.39,86.95-4.91,17.43-7.3,17.13-17.01,38.56-25.99,23.08-9.67,45.86.93,63.64,43.35,17.77,42.41,9.35,66.1-13.72,75.77-21.43,8.98-28.14,1.96-45.57,9.27-17.42,7.3-24.22,41.68-64.48,58.55Z"/>
            <path class="cls-8" d="m96.83,476.9c-39.85,16.7-70.21-18.64-85.77-55.77-15.56-37.13-19.46-83.56,20.39-100.26,40.26-16.87,69.53,2.39,86.95-4.91,17.43-7.3,17.13-17.01,38.56-25.99,23.08-9.67,45.86.93,63.64,43.35,17.77,42.41,9.35,66.1-13.72,75.77-21.43,8.98-28.14,1.96-45.57,9.27-17.42,7.3-24.22,41.68-64.48,58.55Z"/>
          </g>
          <path class="cls-11" d="m106.48,489.19c-39.49,16.55-69.72-18.84-85.28-55.98-15.56-37.13-19.59-83.51,19.9-100.05,39.89-16.72,69,2.62,86.25-4.62,17.27-7.24,16.94-16.93,38.18-25.83,22.86-9.58,45.51,1.08,63.28,43.5,17.77,42.41,9.5,66.03-13.37,75.62-21.23,8.9-27.92,1.87-45.18,9.1-17.26,7.23-23.89,41.54-63.78,58.25Z"/>
          <path class="cls-7" d="m106.48,489.19c-39.49,16.55-69.72-18.84-85.28-55.98-15.56-37.13-19.59-83.51,19.9-100.05,39.89-16.72,69,2.62,86.25-4.62,17.27-7.24,16.94-16.93,38.18-25.83,22.86-9.58,45.51,1.08,63.28,43.5,17.77,42.41,9.5,66.03-13.37,75.62-21.23,8.9-27.92,1.87-45.18,9.1-17.26,7.23-23.89,41.54-63.78,58.25Z"/>
          <path class="cls-16" d="m106.48,489.19c-39.49,16.55-69.72-18.84-85.28-55.98-15.56-37.13-19.59-83.51,19.9-100.05,39.89-16.72,69,2.62,86.25-4.62,17.27-7.24,16.94-16.93,38.18-25.83,22.86-9.58,45.51,1.08,63.28,43.5,17.77,42.41,9.5,66.03-13.37,75.62-21.23,8.9-27.92,1.87-45.18,9.1-17.26,7.23-23.89,41.54-63.78,58.25Z"/>
          <g class="cls-6">
            <g>
              <g>
                <path d="m70.05,326.33l-47.6,19.95c.42-.49.85-.97,1.3-1.43l43.7-18.31c.87-.08,1.74-.15,2.6-.2Z"/>
                <path d="m74.73,326.15l-54.44,22.81c.33-.45.66-.89,1.01-1.31l51.18-21.45c.75-.03,1.51-.06,2.26-.06Z"/>
              </g>
              <g>
                <path d="m216.27,322.51L12.93,407.71c-.07-.27-.13-.53-.18-.81l203.05-85.09c.16.23.32.46.47.69Z"/>
                <path d="m217.21,323.89L13.31,409.34c-.07-.27-.13-.54-.19-.8l203.63-85.33c.16.23.31.46.47.69Z"/>
              </g>
              <g>
                <path d="m236.83,371.35l-203.49,85.27c-.15-.23-.3-.47-.44-.71l203.77-85.39c.06.27.12.55.17.82Z"/>
                <path d="m237.15,372.99l-202.91,85.03c-.15-.23-.3-.47-.45-.7l203.21-85.15c.05.27.11.56.16.83Z"/>
              </g>
              <g>
                <path d="m132.59,472.48l-49.48,20.73c-.56-.04-1.13-.09-1.7-.17l52.9-22.17c-.56.54-1.13,1.07-1.72,1.6Z"/>
                <path d="m128.65,475.91l-41.68,17.47c-.67,0-1.35-.01-2.02-.05l45.81-19.19c-.69.59-1.38,1.19-2.11,1.78Z"/>
              </g>
            </g>
            <g>
              <path d="m59.37,327.66c-3.63,1.48-7.25,2.96-10.89,4.43-6.36,2.58-12.72,5.15-19.08,7.72.16-.12.32-.25.49-.36,9.6-3.86,19.18-7.74,28.77-11.64.23-.05.47-.1.71-.14Z"/>
              <path d="m14.14,360.14c.05-.15.12-.3.18-.45,25.38-10.87,50.76-21.73,76.11-32.66.23.02.46.05.69.08-11.72,5.06-23.44,10.09-35.17,15.13-13.93,5.98-27.87,11.95-41.81,17.91Z"/>
              <path d="m12.3,404.77c-.02-.07-.03-.13-.04-.2,49.37-20.71,98.65-41.64,147.89-62.65,17.87-7.63,35.73-15.27,53.57-22.97.03.05.07.1.1.15-48.58,20.99-97.3,41.62-146.05,62.21-18.49,7.82-36.97,15.7-55.48,23.47Z"/>
              <path d="m107.9,357.56c-13.86,5.58-27.04,12.64-40.61,18.86-13.31,6.11-27,10.74-41.13,14.5-5.13,1.36-10.28,2.66-15.44,3.97-.02-.09-.02-.17-.03-.25,8.38-2.14,16.77-4.22,25.07-6.64,14.63-4.29,28.45-10.25,42.15-16.88,13.58-6.55,27.08-13.17,41.41-17.98,13.86-4.66,27.9-8.63,41.42-14.3,16.9-7.11,33.06-15.77,49.12-24.57.05.04.09.1.14.15-19.5,10.7-39.15,21.18-60.03,28.91-13.88,5.14-28.31,8.71-42.05,14.23Z"/>
              <path d="m64.6,352.51c-14.09,5.7-28.55,10.44-42.89,15.49-3.58,1.26-7.15,2.53-10.71,3.82,0-.08.02-.16.04-.23,6.95-2.49,13.93-4.94,20.91-7.36,14.08-4.88,28.18-9.72,41.82-15.79,12.3-5.46,23.99-12.11,35.67-18.77.2.02.4.04.6.07-14.8,8.32-29.69,16.42-45.43,22.77Z"/>
              <g>
                <path d="m18.17,397.41c-2.31.37-4.63.83-6.93,1.36-.17.04-.34.08-.52.12.17-.04.34-.08.51-.13,2.3-.55,4.6-1.14,6.88-1.75.25-.06.33.36.06.4Z"/>
                <path d="m13.43,401.7l-1.59.67s-.02-.1-.03-.15c.92-.37,1.83-.76,2.72-1.16,1.05-.47,3.05-1.79,2.03-3.14-.06-.09.07-.19.12-.1,1.44,1.9-2.02,3.37-3.25,3.89Z"/>
              </g>
              <path d="m45.99,351.5c17.45-7.6,34.79-15.44,52.06-23.47-.12-.02-.25-.03-.37-.06-7.73,3.59-15.47,7.13-23.24,10.63-17.5,7.9-35.07,15.62-52.72,23.1-3.14,1.33-6.27,2.67-9.4,4-.02.06-.03.12-.04.18,2.27-.94,4.53-1.88,6.79-2.83,8.99-3.81,17.97-7.66,26.94-11.56Zm30.79-8.69c4.25-2.33,8.37-4.86,12.57-7.27,4.15-2.38,8.39-4.54,12.77-6.48.24-.11.47-.21.71-.31-.08-.02-.16-.03-.25-.04-3.4,1.5-6.78,3.06-10.06,4.83-4.19,2.27-8.27,4.75-12.4,7.12-4.18,2.39-8.42,4.6-12.83,6.5-4.44,1.93-8.98,3.6-13.53,5.27-13.99,5.11-27.99,10.21-41.97,15.32-.02.07-.04.15-.06.24,12.45-4.53,24.9-9.07,37.35-13.6,9.41-3.43,18.88-6.76,27.69-11.59Z"/>
              <path d="m68.08,360.16c-14,4.75-28.5,7.96-42.66,12.17-5.03,1.5-10.06,3.05-15.06,4.64,0-.08.01-.17.02-.26,8.22-2.61,16.47-5.1,24.77-7.45,14.43-4.09,29.39-7.18,43.13-13.37,13.3-5.99,25.08-14.88,38.09-21.48,6.39-3.25,12.89-6.32,19.07-9.96,6.44-3.79,12.33-8.38,18.5-12.59,7.31-5,15.21-8.81,23.3-12.23.18-.01.35-.03.53-.04-5.59,2.3-11.11,4.8-16.38,7.81-6.51,3.73-12.41,8.35-18.58,12.59-11.4,7.87-24.27,13.04-36.22,19.98-6.25,3.62-12.29,7.61-18.57,11.19-6.38,3.64-13,6.65-19.95,9Z"/>
              <path d="m59.37,373.45c-13.85,5.51-27.84,10.31-42.21,14.22l-6.91,1.89c0-.07-.01-.13-.02-.19,5.16-1.39,10.31-2.79,15.44-4.28,14.92-4.33,29.34-10.03,43.71-15.88,14.24-5.78,28.46-11.57,42.69-17.34,13.97-5.66,28.03-11.14,41.75-17.4,16.93-7.72,32.58-17.65,48.41-27.29.1.07.21.15.31.24-6.47,3.98-12.9,8.02-19.42,11.89-12.81,7.64-26.1,14.2-39.82,20.01-27.8,11.78-55.89,22.98-83.94,34.13Z"/>
              <path d="m68.63,365.31c-19.24,7.01-38.97,12.47-58.56,18.4,0-.09,0-.2,0-.29,23.2-7.09,46.59-13.5,69.21-22.4,26.87-10.57,52.74-23.5,78.44-36.64,13.27-6.79,26.5-13.65,39.85-20.3.08.03.15.08.22.12-16.97,8.46-33.76,17.25-50.66,25.83-25.59,12.97-51.51,25.45-78.51,35.29Z"/>
              <path d="m192.76,302.56c.31-.14.63-.28.94-.42-.08-.04-.17-.07-.24-.1-2.21.97-4.42,1.94-6.62,2.91-8.18,3.61-16.37,7.21-24.54,10.81-4.09,1.8-8.18,3.61-12.27,5.4-.97.43-1.95.86-2.92,1.29-.23.1-1.19.72-.53.1.43-.4.87-.79,1.31-1.17,1.51-1.33,3.06-2.59,4.66-3.79,10.18-7.66,21.92-13.15,33.92-17.61-.03,0-.06-.02-.09-.01-10.2,3.87-20.19,8.26-29.31,14.3-3.94,2.6-7.67,5.51-11.13,8.72-.06.04,0,.14.07.11,15.59-6.85,31.18-13.69,46.76-20.53Z"/>
              <path d="m109.88,485.23c-6.31,2.64-12.62,5.29-18.93,7.94-.18.02-.35.04-.53.05,11.5-4.84,23-9.65,34.51-14.43-.18.13-.36.25-.53.39-4.85,2-9.69,4.02-14.53,6.04Z"/>
              <path d="m104.85,421.33c-23.99,11.72-48.45,22.51-73.12,32.68-.02-.02-.03-.05-.04-.08,21.44-8.89,42.65-18.31,63.61-28.21,13.28-6.28,26.15-13.18,39.06-20.15,6.19-3.33,12.48-6.47,19.07-8.97,6.72-2.55,13.64-4.54,20.58-6.41,13.79-3.75,27.41-7.67,40.74-12.91,7.21-2.83,14.34-5.86,21.45-8.94.02.08.03.15.05.23-17.01,7.37-34.22,14.25-52.15,19.14-13.95,3.81-27.96,7.27-41.03,13.61-12.94,6.26-25.28,13.7-38.21,20.02Z"/>
              <path d="m14.86,415.26c-.01-.06-.03-.1-.05-.16,20.89-9.23,41.8-18.35,62.75-27.42,47.16-20.41,94.49-40.42,141.98-60.04.04.05.06.1.09.15-17.5,7.22-34.97,14.49-52.42,21.82-51,21.42-101.76,43.33-152.36,65.66Z"/>
              <g>
                <path d="m49.37,412.29c-10.15,5.11-20.59,9.27-31.26,12.97-.02-.03-.03-.06-.04-.09,7.46-2.55,14.85-5.3,22.05-8.59,13.75-6.28,26.8-13.92,40.14-20.98,26.87-14.26,55.21-25.09,84.59-32.9,17.78-4.73,35.9-8.81,53.4-14.58-14.37,4.78-29.14,8.51-43.92,12.28-29.33,7.49-57.78,17.09-84.92,30.63-13.52,6.75-26.55,14.45-40.05,21.26Z"/>
                <path d="m228.14,344.65c-3.26,1.23-6.57,2.38-9.89,3.48,3.31-1.11,6.62-2.27,9.88-3.5,0,0,0,0,0,.02Z"/>
              </g>
              <path d="m135.22,395.17c-13.79,5.4-27.21,11.66-40.66,17.82-22.86,10.47-46.11,19.92-69.92,27.89-.04-.06-.06-.12-.09-.18,20.06-6.71,39.8-14.27,59.15-22.91,13.66-6.1,27.14-12.57,40.92-18.41,13.68-5.8,27.69-10.73,41.77-15.46,14.06-4.72,28.17-9.31,42.01-14.61,8.51-3.26,16.83-6.86,25.01-10.76.02.04.03.08.04.13-5.03,2.43-10.13,4.73-15.29,6.87-13.56,5.63-27.46,10.35-41.38,15.01-13.92,4.67-27.88,9.26-41.56,14.62Z"/>
              <path d="m97.96,416.48c-23.15,10.62-45.84,22.19-69.11,32.58-.04-.06-.07-.13-.11-.19,20.02-8.95,39.69-18.6,59.52-28,47.51-22.55,97.5-38.92,146.6-57.57.01.03.02.07.03.09-18.48,7.01-37.1,13.68-55.65,20.49-27.4,10.05-54.73,20.43-81.28,32.6Z"/>
              <path d="m177.45,372.39c-13.83,4.29-27.46,8.92-40.83,14.53-13.47,5.65-26.89,11.42-40.42,16.92-24.89,10.1-49.97,19.71-75.15,29.03l-.04-.09c21.89-8.1,43.7-16.42,65.36-25.09,13.59-5.45,27.14-11.05,40.6-16.79,13.33-5.7,26.7-11.07,40.51-15.5,13.47-4.32,27.09-8.18,40.32-13.17,7.94-2.99,15.69-6.46,23.3-10.22l.06.13c-4.53,2.25-9.13,4.38-13.79,6.38-12.98,5.54-26.48,9.7-39.93,13.87Z"/>
              <path d="m172.62,368.58c-7.4,2.04-14.71,4.52-21.93,7.11-7.12,2.56-14.12,5.42-20.99,8.6-13.48,6.24-26.6,13.34-40.5,18.64-7.61,2.9-15.44,5.21-23.49,6.5-.05,0-.07-.06-.04-.09,6-4.69,12.69-8.35,19.49-11.73,7.07-3.52,14.24-6.83,21.49-9.96,14.53-6.27,29.39-11.76,44.51-16.45,4.28-1.33,8.58-2.59,12.9-3.79.72-.2,7.51-2.62,6.82.22-.02.07-.14.06-.12-.02.08-.31-.27-.86-.49-1.01-.2-.14-.49-.2-.73-.24-.5-.08-.97-.03-1.46.08-1,.23-1.98.52-2.96.79-1.82.5-3.64,1.01-5.46,1.54-3.57,1.03-7.12,2.1-10.66,3.22-7.14,2.25-14.23,4.69-21.26,7.3-14.1,5.25-27.95,11.2-41.44,17.86-6.67,3.29-13.3,6.79-19.26,11.26-.1.07-1,.68-.98.75.06.22.86-.04,1.04-.07.86-.15,1.73-.31,2.59-.48,1.91-.38,3.8-.82,5.69-1.31,3.51-.91,6.97-2,10.39-3.21,13.7-4.86,26.58-11.66,39.67-17.9,6.65-3.17,13.38-6.16,20.26-8.81,7.04-2.71,14.19-5.12,21.37-7.4,1.81-.58,3.62-1.15,5.42-1.77.25-.08.39.31.15.37Z"/>
              <path d="m226.04,339.95c-8.57,3.24-17.3,6.04-26.06,8.61-7.65,2.25-15.33,4.32-23.02,6.39-.05,0-.09-.05-.05-.09,2.45-2.01,5.26-3.46,8.16-4.74,3.17-1.41,6.37-2.72,9.56-4.08,6.51-2.76,13.02-5.51,19.52-8.26,2.98-1.26,5.96-2.53,8.94-3.79.02.02.03.04.04.07-8.45,3.58-16.88,7.2-25.33,10.77-3.25,1.37-6.51,2.75-9.76,4.12-3.14,1.34-6.33,2.65-9.18,4.57-.3.2-1.58.95-1.53,1.22,0-.03,2.25-.61,2.45-.67l5.3-1.43c3.4-.93,6.79-1.87,10.19-2.83,10.35-2.95,20.65-6.14,30.72-9.96.01.03.03.06.05.09Z"/>
              <path d="m71.44,490.7c-.16-.05-.33-.1-.49-.17,24.88-10.91,49.81-21.75,74.76-32.53-.14.19-.29.37-.44.56-14.69,6.34-29.36,12.7-44.02,19.09-9.94,4.33-19.88,8.69-29.81,13.05Z"/>
              <path d="m35.98,460.59s-.08-.09-.1-.15c48.14-20.79,96.42-41.23,144.72-61.63,18.95-8.02,37.88-16.09,56.85-24.05.02.07.03.14.03.21-49.83,20.9-99.56,42.03-149.26,63.22-17.43,7.43-34.84,14.9-52.24,22.4Z"/>
              <path d="m87.65,441.28c-16.58,6.98-32.44,15.43-48.2,24.07-.05-.05-.09-.11-.13-.17,19.2-10.52,38.56-20.8,59.12-28.41,13.88-5.13,28.29-8.7,42.05-14.23,13.85-5.57,27.04-12.64,40.61-18.86,13.3-6.11,27-10.74,41.13-14.5,5.38-1.42,10.78-2.78,16.18-4.16.01.08,0,.17,0,.25-8.62,2.21-17.25,4.34-25.79,6.84-14.63,4.28-28.45,10.25-42.15,16.87-13.57,6.56-27.08,13.17-41.41,17.98-13.86,4.66-27.9,8.63-41.41,14.31Z"/>
              <g>
                <path d="m216.42,415.87c-10.56,3.67-21.13,7.31-31.52,11.46-.19.02-.39.04-.6.05,13.92-5.6,28.2-10.29,42.36-15.28,1.36-.47,2.71-.96,4.07-1.44-.08.09-.14.19-.22.27-4.69,1.67-9.38,3.31-14.09,4.93Z"/>
                <path d="m65.23,488.02c-.07-.02-.14-.06-.19-.09,13.21-5.88,26.26-12.15,39.13-18.75,19.11-9.82,37.49-21.19,56.62-30.98-.09.09-.17.19-.26.29-8.53,4.44-16.86,9.26-25.23,14.01-13.12,7.46-26.45,14.59-39.97,21.32-9.93,4.95-19.98,9.69-30.11,14.21Z"/>
              </g>
              <g>
                <path d="m230.26,383.1c2.46-.66,4.92-1.27,7.39-1.87-2.48.57-4.96,1.08-7.45,1.48-.26.04-.18.46.06.4Z"/>
                <path d="m238.21,381.09c-.19.05-.38.08-.57.13.19-.05.38-.1.57-.14h0Z"/>
                <path d="m231.69,382.3c-1.44-1.9,2.02-3.37,3.25-3.89.96-.4,1.92-.8,2.88-1.2,0,.05.01.1.01.15-1.34.55-2.68,1.08-4,1.69-1.04.48-3.04,1.8-2.02,3.14.06.09-.07.19-.12.1Z"/>
              </g>
              <path d="m149.8,452.56c.1-.12.18-.24.27-.36-.44.21-.89.41-1.33.62-8.86,4.13-17.73,8.23-26.51,12.54-.99.49.04-.27.35-.58.39-.4.78-.77,1.19-1.14.77-.71,1.57-1.38,2.39-2.01,1.79-1.38,3.72-2.61,5.68-3.72,3.76-2.12,7.73-3.82,11.69-5.53,3.24-1.4,6.46-2.82,9.6-4.4.09-.11.17-.23.25-.34-2.34,1.2-4.72,2.33-7.13,3.41-8.79,3.87-18.17,7.45-24.81,14.71-.06.06.03.15.09.11,9.4-4.49,18.82-8.93,28.27-13.31Zm49.49-26.84c-.9.32-1.79.65-2.69.98.31-.03.64-.07.96-.1,8.94-3.26,17.88-6.52,26.81-9.79.19-.14.38-.29.57-.44-8.54,3.12-17.1,6.23-25.65,9.35Z"/>
              <path d="m59.92,484.97c-.05-.03-.11-.07-.16-.11,2.39-.94,4.76-1.87,7.14-2.82,6.85-2.73,13.66-5.64,20.08-9.32,6.51-3.72,12.42-8.34,18.58-12.59,11.41-7.88,24.27-13.04,36.22-19.98,6.25-3.62,12.29-7.6,18.56-11.2,6.38-3.63,13.02-6.63,19.96-9,13.97-4.75,28.49-7.96,42.65-12.17,3.94-1.18,7.87-2.38,11.8-3.62-.06.11-.11.22-.16.32-7.09,2.22-14.21,4.34-21.36,6.37-14.43,4.09-29.39,7.18-43.12,13.37-13.3,6-25.09,14.88-38.09,21.48-6.4,3.25-12.9,6.32-19.08,9.96-6.45,3.8-12.34,8.38-18.5,12.59-10.67,7.28-22.55,12.06-34.51,16.71Z"/>
              <path d="m45.94,473.06c-.08-.09-.17-.18-.25-.27,6.51-4.01,12.99-8.08,19.56-11.99,12.81-7.62,26.1-14.19,39.83-20,27.8-11.79,55.89-22.97,83.94-34.13,13.84-5.52,27.84-10.31,42.21-14.22,2.33-.64,4.67-1.27,7-1.9,0,.06,0,.13-.02.2-5.17,1.4-10.34,2.8-15.49,4.29-14.92,4.33-29.33,10.04-43.71,15.88-14.24,5.78-28.46,11.58-42.69,17.34-13.97,5.67-28.04,11.15-41.75,17.4-17,7.75-32.71,17.74-48.61,27.41Z"/>
              <path d="m49.52,476.67c-.06-.04-.11-.09-.16-.15,17.39-8.63,34.57-17.65,51.88-26.42,25.59-12.97,51.51-25.46,78.49-35.29,18.9-6.89,38.27-12.28,57.53-18.09-.02.1-.05.21-.07.31-22.84,6.95-45.84,13.31-68.1,22.05-26.88,10.58-52.74,23.51-78.45,36.66-13.69,7.01-27.35,14.08-41.14,20.92Z"/>
              <path d="m91.31,465.86c3.94-2.61,7.68-5.51,11.13-8.72.05-.05,0-.15-.07-.12-15.59,6.85-31.17,13.68-46.77,20.54-1.16.51-2.31,1.01-3.46,1.53.06.04.11.09.16.13,3.07-1.35,6.16-2.71,9.23-4.06,8.18-3.61,16.36-7.2,24.54-10.81,4.09-1.8,8.18-3.61,12.26-5.4.98-.42,1.95-.86,2.92-1.29.24-.1,1.19-.73.54-.09-.43.4-.87.79-1.31,1.16-1.51,1.33-3.06,2.59-4.66,3.79-11.83,8.91-25.78,14.88-39.78,19.71.04.04.08.06.11.09,12.2-4.44,24.3-9.28,35.16-16.47Z"/>
            </g>
          </g>
        </g>
        <g>
          <path class="cls-21" d="m147.89,390.37c-4.39.78-15.33,4.32-19.45,8.96-4.12,4.64-6.14,10.97-1.64,21.69,4.49,10.72,12.4,13.12,16.7,12.83,4.3-.29,20.93-5.15,33.08-15.96,12.15-10.81,22.2-24.11,16.02-36.92,0,0-2.75,13.82-20.04,17.87-14.34,3.36-24.67-8.46-24.67-8.46Z"/>
          <path class="cls-15" d="m138.28,361.87c.18-.53.38-1.05.6-1.57,3.12-7.61,9.01-13.55,16.59-16.73,15.66-6.56,33.73.84,40.29,16.5,3.18,7.58,3.22,15.96.1,23.56-3.12,7.61-9.01,13.55-16.59,16.73h0c-7.58,3.18-15.95,3.21-23.56.1-7.61-3.12-13.55-9.01-16.73-16.59-2.96-7.06-3.19-14.81-.69-21.99Zm57.31,19.91c2.34-6.72,2.31-14.3-.65-21.37-6.37-15.2-23.92-22.39-39.12-16.02-7.36,3.09-13.09,8.85-16.11,16.24-3.03,7.39-2.99,15.52.09,22.88,3.09,7.36,8.85,13.09,16.24,16.11,7.39,3.03,15.52,2.99,22.88-.09h0c8.13-3.41,13.97-10.02,16.67-17.76Z"/>
          <path class="cls-15" d="m141.22,362.87c2.5-7.17,7.9-13.29,15.44-16.45,6.82-2.86,14.35-2.89,21.19-.09,6.84,2.8,12.19,8.1,15.05,14.92,2.86,6.82,2.89,14.34.09,21.19-2.8,6.84-8.1,12.19-14.92,15.05h0c-14.08,5.9-30.33-.76-36.24-14.84-2.74-6.55-2.77-13.56-.6-19.79Zm50.61,17.58c2.1-6.04,1.91-12.56-.58-18.5-2.67-6.38-7.67-11.34-14.07-13.96-6.4-2.62-13.44-2.59-19.83.08-13.17,5.52-19.4,20.73-13.88,33.9,5.52,13.17,20.73,19.4,33.9,13.88,6.38-2.67,11.34-7.67,13.96-14.08.18-.44.35-.88.5-1.32Z"/>
          <path class="cls-15" d="m143.96,363.82c2.24-6.42,7.08-11.9,13.82-14.73,12.61-5.28,27.16.68,32.45,13.29,2.56,6.11,2.58,12.84.08,18.97-2.51,6.13-7.25,10.91-13.36,13.47-6.11,2.56-12.85,2.59-18.98.08-6.13-2.51-10.91-7.25-13.47-13.36-2.46-5.86-2.48-12.15-.54-17.72Zm45.99,15.97c1.94-5.57,1.76-11.59-.54-17.07-5.09-12.15-19.13-17.9-31.28-12.81-12.16,5.09-17.9,19.13-12.81,31.28,2.47,5.89,7.08,10.46,12.99,12.88,5.91,2.42,12.4,2.39,18.29-.08h0c5.89-2.47,10.46-7.08,12.88-12.99.17-.4.32-.81.46-1.22Z"/>
          <g>
            <circle class="cls-11" cx="167.36" cy="371.96" r="20.66" transform="translate(-240.52 372.13) rotate(-65.8)"/>
            <circle class="cls-24" cx="167.36" cy="371.96" r="20.66" transform="translate(-240.52 372.13) rotate(-65.8)"/>
            <path class="cls-22" d="m175.35,391.02c-10.52,4.41-22.62-.55-27.04-11.08-.91-2.17-1.42-4.4-1.56-6.62.23.91.54,1.82.92,2.72,4.21,10.05,15.78,14.79,25.84,10.58,10.06-4.22,14.79-15.78,10.58-25.84-.38-.91-.82-1.77-1.32-2.59,1.5,1.67,2.74,3.6,3.65,5.78,4.41,10.53-.54,22.63-11.07,27.04Z"/>
          </g>
          <path class="cls-21" d="m108.48,434.87l-12.58,5.27-3.61-8.62s-8.6-7.78-14.55-22c-5.96-14.22-5.48-25.8-5.48-25.8l-3.61-8.62,12.58-5.27,13.92,32.4,13.33,32.65Z"/>
        </g>
        <g>
          <g>
            <g>
              <g>
                <polygon class="cls-17" points="394.79 293.98 390.66 295.71 393.32 301.3 396.9 299.8 394.79 293.98"/>
                <polygon class="cls-19" points="393.32 301.3 396.9 299.8 395.89 297.02 393.57 297.26 392.04 298.62 393.32 301.3"/>
              </g>
              <path class="cls-17" d="m401.23,301.27l-1.8-4.31-5.26,1.34-4.64,2.81,1.8,4.31s2.65.49,5.52-.71c2.87-1.2,4.38-3.44,4.38-3.44Z"/>
            </g>
            <g>
              <g>
                <polygon class="cls-17" points="410.19 288.44 406.06 290.17 408.72 295.75 412.3 294.25 410.19 288.44"/>
                <polygon class="cls-19" points="408.72 295.75 412.3 294.25 411.29 291.47 408.97 291.72 407.44 293.07 408.72 295.75"/>
              </g>
              <path class="cls-17" d="m416.63,295.72l-1.8-4.31-5.26,1.34-4.64,2.81,1.8,4.31s2.65.49,5.52-.71c2.87-1.2,4.38-3.44,4.38-3.44Z"/>
            </g>
            <g>
              <g>
                <polygon class="cls-17" points="427.69 282.01 423.56 283.74 426.22 289.32 429.8 287.82 427.69 282.01"/>
                <polygon class="cls-19" points="426.22 289.32 429.8 287.82 428.79 285.05 426.48 285.29 424.94 286.64 426.22 289.32"/>
              </g>
              <path class="cls-17" d="m434.13,289.29l-1.8-4.31-5.26,1.34-4.64,2.81,1.8,4.31s2.65.49,5.52-.71,4.38-3.44,4.38-3.44Z"/>
            </g>
          </g>
          <path class="cls-11" d="m445.44,276.27l-59.14,21.73s-8.38-2.13-16.06,1.09l-8.52-20.34c7.68-3.22,12.04-10.69,12.04-10.69l56.96-26.92,14.72,35.13Z"/>
          <path class="cls-23" d="m445.44,276.27l-59.14,21.73s-8.38-2.13-16.06,1.09l-8.52-20.34c7.68-3.22,12.04-10.69,12.04-10.69l56.96-26.92,14.72,35.13Z"/>
        </g>
        <g>
          <g>
            <path class="cls-11" d="m189.18,375.42l-10.67-25.46c68.44-27.44,177.72-71.26,179.22-71.89,2.2-.92,3.02-1.47,3.02-1.47l8.52,20.34s-.97.2-3.17,1.13c-1.51.63-109.38,47.8-176.94,77.35Z"/>
            <g class="cls-26">
              <path d="m189.18,375.42l-10.67-25.46c68.44-27.44,177.72-71.26,179.22-71.89,2.2-.92,3.02-1.47,3.02-1.47l8.52,20.34s-.97.2-3.17,1.13c-1.51.63-109.38,47.8-176.94,77.35Z"/>
            </g>
          </g>
          <g>
            <path class="cls-11" d="m190.13,377.58l-10.67-25.46c68.44-27.44,177.72-71.26,179.22-71.89,2.2-.92,3.02-1.47,3.02-1.47l8.52,20.34s-.97.2-3.17,1.13c-1.51.63-109.38,47.8-176.94,77.35Z"/>
            <g class="cls-27">
              <path d="m190.13,377.58l-10.67-25.46c68.44-27.44,177.72-71.26,179.22-71.89,2.2-.92,3.02-1.47,3.02-1.47l8.52,20.34s-.97.2-3.17,1.13c-1.51.63-109.38,47.8-176.94,77.35Z"/>
            </g>
          </g>
          <g>
            <path class="cls-17" d="m301.45,317.58c-.85.35-1.82-.04-2.18-.89-.35-.85.04-1.82.89-2.18.85-.35,1.82.04,2.17.89.35.85-.04,1.82-.89,2.18Z"/>
            <path class="cls-17" d="m278.87,327.04c-.85.35-1.82-.04-2.18-.89-.35-.85.04-1.82.89-2.18.85-.35,1.82.04,2.18.89.35.85-.04,1.82-.89,2.18Z"/>
            <path class="cls-17" d="m258.48,335.58c-.85.35-1.82-.04-2.17-.89-.35-.85.04-1.82.89-2.17.85-.35,1.82.04,2.18.89.35.85-.04,1.82-.89,2.18Z"/>
            <path class="cls-17" d="m232.1,346.64c-.85.35-1.82-.04-2.18-.89-.35-.85.04-1.82.89-2.18.85-.35,1.82.04,2.18.89.35.85-.04,1.82-.89,2.17Z"/>
          </g>
          <g>
            <g>
              <path class="cls-19" d="m193.46,376.05l-10.58-25.24c.19-.08.38-.15.57-.23l10.57,25.23c-.19.08-.37.17-.56.25Z"/>
              <path class="cls-22" d="m193.15,376.19l-10.59-25.26c.1-.03.21-.08.32-.12l10.58,25.24c-.11.04-.21.09-.31.14Z"/>
            </g>
            <g>
              <path class="cls-19" d="m198.89,373.68l-10.51-25.08c.19-.07.38-.15.57-.23l10.5,25.07c-.19.08-.38.16-.56.25Z"/>
              <rect class="cls-22" x="193.31" y="347.61" width=".34" height="27.2" transform="translate(-124.58 102.86) rotate(-22.74)"/>
            </g>
            <g>
              <path class="cls-19" d="m204.99,371.01l-10.43-24.89c.19-.08.38-.16.57-.23l10.42,24.87c-.18.09-.37.17-.56.25Z"/>
              <path class="cls-22" d="m204.68,371.15l-10.44-24.9c.11-.04.21-.08.32-.12l10.43,24.89c-.11.04-.2.1-.31.14Z"/>
            </g>
            <g>
              <rect class="cls-19" x="206.01" y="342.44" width=".6" height="26.77" transform="translate(-121.49 107.38) rotate(-22.74)"/>
              <path class="cls-22" d="m210.9,368.43l-10.35-24.71c.1-.04.21-.09.32-.12l10.35,24.69c-.1.05-.21.1-.31.14Z"/>
            </g>
            <g>
              <path class="cls-19" d="m217.98,365.34l-10.26-24.49c.19-.08.38-.15.57-.23l10.26,24.47c-.19.08-.37.17-.56.25Z"/>
              <path class="cls-22" d="m217.67,365.48l-10.27-24.51c.11-.04.21-.08.32-.12l10.26,24.49c-.11.04-.21.09-.31.14Z"/>
            </g>
            <g>
              <path class="cls-19" d="m225.07,362.24l-10.17-24.28c.19-.08.38-.15.57-.23l10.17,24.26c-.19.08-.37.17-.56.25Z"/>
              <rect class="cls-22" x="219.68" y="337" width=".32" height="26.32" transform="translate(-118.25 112.17) rotate(-22.73)"/>
            </g>
            <g>
              <path class="cls-19" d="m232.68,358.91l-10.08-24.04c.19-.08.38-.15.57-.23l10.07,24.03c-.19.08-.37.17-.56.25Z"/>
              <path class="cls-22" d="m232.38,359.05l-10.08-24.06c.1-.03.21-.08.31-.12l10.08,24.04c-.1.04-.21.09-.3.14Z"/>
            </g>
            <g>
              <path class="cls-19" d="m240.52,355.49l-9.98-23.81c.19-.07.38-.15.57-.23l9.97,23.79c-.19.08-.38.16-.56.25Z"/>
              <rect class="cls-22" x="235.22" y="330.74" width=".33" height="25.82" transform="translate(-114.53 117.68) rotate(-22.74)"/>
            </g>
            <g>
              <path class="cls-19" d="m249.02,351.77l-9.87-23.54c.19-.08.38-.16.57-.23l9.86,23.53c-.18.09-.37.17-.56.25Z"/>
              <path class="cls-22" d="m248.73,351.9l-9.87-23.56c.1-.04.2-.07.3-.11l9.87,23.54c-.1.04-.19.09-.29.13Z"/>
            </g>
            <g>
              <path class="cls-19" d="m257.79,347.94l-9.75-23.27c.19-.08.38-.16.57-.23l9.75,23.26c-.18.09-.37.17-.56.25Z"/>
              <path class="cls-22" d="m257.48,348.08l-9.76-23.29c.1-.04.21-.08.31-.12l9.75,23.27c-.1.04-.2.1-.3.14Z"/>
            </g>
            <g>
              <path class="cls-19" d="m267.42,343.74l-9.63-22.99c.19-.08.37-.14.56-.22l9.63,22.97c-.19.08-.36.16-.55.24Z"/>
              <rect class="cls-22" x="262.28" y="319.84" width=".34" height="24.92" transform="translate(-108.05 127.28) rotate(-22.74)"/>
            </g>
            <g>
              <rect class="cls-19" x="294.77" y="306.7" width=".61" height="23.86" transform="translate(-100.22 138.81) rotate(-22.74)"/>
              <path class="cls-22" d="m299.09,329.89l-9.23-22.02c.11-.05.21-.09.32-.12l9.22,22c-.1.05-.2.1-.31.14Z"/>
            </g>
            <g>
              <rect class="cls-19" x="272.67" y="315.61" width=".61" height="24.58" transform="translate(-105.52 130.99) rotate(-22.74)"/>
              <path class="cls-22" d="m277.13,339.49l-9.51-22.68c.11-.05.21-.09.32-.12l9.5,22.67c-.1.05-.2.1-.31.14Z"/>
            </g>
            <g>
              <path class="cls-19" d="m311.52,324.47l-9.07-21.65c.19-.08.38-.15.57-.23l9.06,21.63c-.19.08-.37.17-.56.25Z"/>
              <rect class="cls-22" x="306.67" y="301.97" width=".33" height="23.47" transform="translate(-97.4 142.97) rotate(-22.74)"/>
            </g>
            <g>
              <path class="cls-19" d="m324.27,318.89l-8.91-21.25c.19-.08.38-.16.57-.23l8.9,21.23c-.18.09-.37.17-.56.25Z"/>
              <path class="cls-22" d="m323.97,319.03l-8.91-21.27c.1-.04.21-.09.31-.12l8.91,21.25c-.09.05-.2.1-.3.14Z"/>
            </g>
            <g>
              <path class="cls-19" d="m337.74,313.02l-8.74-20.86c.19-.08.38-.15.57-.23l8.73,20.84c-.19.08-.37.17-.56.25Z"/>
              <rect class="cls-22" x="333.05" y="291.34" width=".33" height="22.62" transform="translate(-91.08 152.31) rotate(-22.74)"/>
            </g>
            <g>
              <path class="cls-19" d="m352.16,306.72l-8.56-20.43c.19-.08.38-.15.57-.23l8.55,20.41c-.19.08-.37.17-.56.25Z"/>
              <rect class="cls-22" x="347.56" y="285.5" width=".33" height="22.15" transform="translate(-87.58 157.37) rotate(-22.73)"/>
            </g>
            <g>
              <rect class="cls-22" x="283.26" y="311.39" width=".33" height="24.25" transform="translate(-103.02 134.69) rotate(-22.74)"/>
              <path class="cls-19" d="m288.26,334.63l-9.37-22.36c.19-.07.38-.15.57-.23l9.36,22.34c-.19.08-.38.16-.56.25Z"/>
            </g>
          </g>
          <path class="cls-17" d="m370.23,299.1s-.84.17-2.75.96l-8.39-20.02c1.9-.81,2.62-1.29,2.62-1.29l8.52,20.34Z"/>
        </g>
        <g>
          <polygon class="cls-19" points="362 280.36 80.68 393.04 80.48 392.55 361.79 279.87 362 280.36"/>
          <polygon class="cls-19" points="363.48 283.89 82.8 398.1 82.6 397.61 363.27 283.4 363.48 283.89"/>
          <polygon class="cls-19" points="364.94 287.37 84.84 402.95 84.63 402.46 364.73 286.88 364.94 287.37"/>
          <rect class="cls-19" x="75.04" y="348.84" width="303.01" height=".53" transform="translate(-117.31 114.66) rotate(-22.73)"/>
          <polygon class="cls-19" points="88.81 412.44 88.61 411.95 367.64 293.83 367.85 294.32 88.81 412.44"/>
          <polygon class="cls-19" points="90.8 417.2 90.6 416.7 369.23 297.62 369.44 298.11 90.8 417.2"/>
          <polygon class="cls-19" points="384.06 272.03 384.27 272.52 362 280.36 361.79 279.87 384.06 272.03"/>
          <polygon class="cls-19" points="399.72 263.92 399.92 264.41 363.48 283.89 363.27 283.4 399.72 263.92"/>
          <polygon class="cls-19" points="416.58 256.34 416.78 256.84 364.94 287.37 364.73 286.88 416.58 256.34"/>
          <polygon class="cls-19" points="390.13 286.51 390.34 287 369.44 298.11 369.23 297.62 390.13 286.51"/>
          <polygon class="cls-19" points="407.05 280.58 407.25 281.07 367.85 294.32 367.64 293.82 407.05 280.58"/>
          <polygon class="cls-19" points="423.87 273.75 424.08 274.24 366.43 290.93 366.22 290.44 423.87 273.75"/>
          <g>
            <path class="cls-12" d="m81.67,394.48c-.99.42-2.13-.05-2.55-1.04s.05-2.13,1.04-2.55c.99-.42,2.13.05,2.55,1.04.42.99-.05,2.13-1.04,2.55Z"/>
            <path class="cls-21" d="m81.16,393.27c-.32.14-.69-.02-.83-.34s.02-.69.34-.83.69.02.83.34c.14.32-.02.69-.34.83Z"/>
          </g>
          <g>
            <path class="cls-12" d="m83.79,399.54c-.99.42-2.13-.05-2.55-1.04s.05-2.13,1.04-2.55c.99-.42,2.13.05,2.55,1.04.42.99-.05,2.13-1.04,2.55Z"/>
            <path class="cls-21" d="m83.28,398.33c-.32.14-.69-.02-.83-.34-.14-.32.02-.69.34-.83s.69.02.83.34c.14.32-.02.69-.34.83Z"/>
          </g>
          <g>
            <path class="cls-12" d="m85.8,404.34c-.99.42-2.13-.05-2.55-1.04s.05-2.13,1.04-2.55,2.13.05,2.55,1.04c.42.99-.05,2.13-1.04,2.55Z"/>
            <path class="cls-21" d="m85.29,403.13c-.32.14-.69-.02-.83-.34-.14-.32.02-.69.34-.83s.69.02.83.34-.02.69-.34.83Z"/>
          </g>
          <g>
            <path class="cls-12" d="m87.84,409.21c-.99.42-2.13-.05-2.55-1.04-.42-.99.05-2.13,1.04-2.55.99-.42,2.13.05,2.55,1.04s-.05,2.13-1.04,2.55Z"/>
            <path class="cls-21" d="m87.33,408c-.32.14-.69-.02-.83-.34s.02-.69.34-.83.69.02.83.34-.02.69-.34.83Z"/>
          </g>
          <g>
            <path class="cls-12" d="m89.78,413.83c-.99.42-2.13-.05-2.55-1.04-.42-.99.05-2.13,1.04-2.55.99-.42,2.13.05,2.55,1.04.42.99-.05,2.13-1.04,2.55Z"/>
            <path class="cls-21" d="m89.27,412.62c-.32.14-.69-.02-.83-.34-.14-.32.02-.69.34-.83s.69.02.83.34-.02.69-.34.83Z"/>
          </g>
          <g>
            <path class="cls-12" d="m91.76,418.56c-.99.42-2.13-.05-2.55-1.04s.05-2.13,1.04-2.55c.99-.42,2.13.05,2.55,1.04.42.99-.05,2.13-1.04,2.55Z"/>
            <path class="cls-21" d="m91.25,417.35c-.32.14-.69-.02-.83-.34s.02-.69.34-.83.69.02.83.34c.14.32-.02.69-.34.83Z"/>
          </g>
        </g>
        <g>
          <g>
            <path class="cls-17" d="m384.09,274.62c-1.76.74-3.78-.09-4.52-1.85-.74-1.76.09-3.78,1.85-4.52,1.76-.74,3.78.09,4.52,1.85.74,1.76-.09,3.78-1.85,4.52Z"/>
            <path class="cls-19" d="m383.7,273.69c-3.12,1.24-5.11-3.33-1.99-4.74,3.21-1.24,5.06,3.39,1.99,4.74h0Zm0,0c2.81-1.28,1.01-5.37-1.78-4.25-2.75,1.21-1.1,5.36,1.78,4.25h0Z"/>
            <path class="cls-19" d="m382.12,269.93c2.13-.85,3.52,2.27,1.36,3.26-2.21.85-3.47-2.34-1.36-3.26h0Zm0,0c-1.84.82-.63,3.51,1.16,2.77,1.78-.76.72-3.5-1.16-2.77h0Z"/>
          </g>
          <g>
            <path class="cls-17" d="m391.7,292.78c-1.76.74-3.78-.09-4.52-1.85-.74-1.76.09-3.78,1.85-4.52,1.76-.74,3.78.09,4.52,1.85s-.09,3.78-1.85,4.52Z"/>
            <path class="cls-19" d="m391.31,291.85c-3.12,1.24-5.11-3.33-1.99-4.74,3.21-1.24,5.06,3.39,1.99,4.74h0Zm0,0c2.81-1.28,1.01-5.37-1.78-4.25-2.75,1.21-1.1,5.36,1.78,4.25h0Z"/>
            <path class="cls-19" d="m389.74,288.1c2.13-.85,3.52,2.27,1.36,3.26-2.21.85-3.47-2.34-1.36-3.26h0Zm0,0c-1.84.82-.63,3.51,1.16,2.77,1.78-.76.72-3.5-1.16-2.77h0Z"/>
          </g>
          <g>
            <path class="cls-17" d="m400.88,266.61c-1.76.74-3.78-.09-4.52-1.85-.74-1.76.09-3.78,1.85-4.52,1.76-.74,3.78.09,4.52,1.85.74,1.76-.09,3.78-1.85,4.52Z"/>
            <path class="cls-19" d="m400.49,265.68c-3.12,1.24-5.11-3.33-1.99-4.74,3.21-1.24,5.06,3.39,1.99,4.74h0Zm0,0c2.81-1.28,1.01-5.37-1.78-4.25-2.75,1.21-1.1,5.36,1.78,4.25h0Z"/>
            <path class="cls-19" d="m398.91,261.92c2.13-.85,3.52,2.27,1.36,3.26-2.21.85-3.47-2.34-1.36-3.26h0Zm0,0c-1.84.82-.63,3.51,1.16,2.77,1.78-.76.72-3.5-1.16-2.77h0Z"/>
          </g>
          <g>
            <path class="cls-17" d="m409.07,286.17c-1.76.74-3.78-.09-4.52-1.85-.74-1.76.09-3.78,1.85-4.52,1.76-.74,3.78.09,4.52,1.85.74,1.76-.09,3.78-1.85,4.52Z"/>
            <path class="cls-19" d="m408.68,285.23c-3.12,1.24-5.11-3.33-1.99-4.74,3.21-1.24,5.06,3.39,1.99,4.74h0Zm0,0c2.81-1.28,1.01-5.37-1.78-4.25-2.75,1.21-1.1,5.36,1.78,4.25h0Z"/>
            <path class="cls-19" d="m407.11,281.48c2.13-.85,3.52,2.27,1.36,3.26-2.21.85-3.47-2.34-1.36-3.26h0Zm0,0c-1.84.82-.63,3.51,1.16,2.77,1.78-.76.72-3.5-1.16-2.77h0Z"/>
          </g>
          <g>
            <path class="cls-17" d="m417.78,259.18c-1.76.74-3.78-.09-4.52-1.85-.74-1.76.09-3.78,1.85-4.52,1.76-.74,3.78.09,4.52,1.85.74,1.76-.09,3.78-1.85,4.52Z"/>
            <path class="cls-19" d="m417.38,258.25c-3.12,1.24-5.11-3.33-1.99-4.74,3.21-1.24,5.06,3.39,1.99,4.74h0Zm0,0c2.81-1.28,1.01-5.37-1.78-4.25-2.75,1.21-1.1,5.36,1.78,4.25h0Z"/>
            <path class="cls-19" d="m415.81,254.49c2.13-.85,3.52,2.27,1.36,3.26-2.21.85-3.47-2.34-1.36-3.26h0Zm0,0c-1.84.82-.63,3.51,1.16,2.77,1.78-.76.72-3.5-1.16-2.77h0Z"/>
          </g>
          <g>
            <path class="cls-17" d="m426.17,279.22c-1.76.74-3.78-.09-4.52-1.85-.74-1.76.09-3.78,1.85-4.52,1.76-.74,3.78.09,4.52,1.85s-.09,3.78-1.85,4.52Z"/>
            <path class="cls-19" d="m425.78,278.29c-3.12,1.24-5.11-3.33-1.99-4.74,3.21-1.24,5.06,3.39,1.99,4.74h0Zm0,0c2.81-1.28,1.01-5.37-1.78-4.25-2.75,1.21-1.1,5.36,1.78,4.25h0Z"/>
            <path class="cls-19" d="m424.21,274.53c2.13-.85,3.52,2.27,1.36,3.26-2.21.85-3.47-2.34-1.36-3.26h0Zm0,0c-1.84.82-.63,3.51,1.16,2.77,1.78-.76.72-3.5-1.16-2.77h0Z"/>
          </g>
        </g>
        <g>
          <path class="cls-11" d="m430.72,241.15l-56.96,26.92s-4.86,8.25-12.04,10.69l-.95-2.16s7.87-3.35,10.24-12.25l53.07-27.17,6.64,3.97Z"/>
          <path class="cls-25" d="m430.72,241.15l-56.96,26.92s-4.86,8.25-12.04,10.69l-.95-2.16s7.87-3.35,10.24-12.25l53.07-27.17,6.64,3.97Z"/>
        </g>
        <g>
          <g>
            <polygon class="cls-17" points="383.32 260.41 379.19 262.14 377.08 256.33 380.66 254.83 383.32 260.41"/>
            <polygon class="cls-19" points="377.08 256.33 380.66 254.83 381.93 257.5 380.13 258.98 378.09 259.12 377.08 256.33"/>
          </g>
          <path class="cls-17" d="m382.65,250.71l1.8,4.31-4.64,2.81-5.26,1.34-1.8-4.31s1.51-2.24,4.38-3.44c2.87-1.2,5.52-.71,5.52-.71Z"/>
        </g>
        <g>
          <g>
            <polygon class="cls-17" points="398.08 253.33 393.95 255.06 391.84 249.24 395.41 247.74 398.08 253.33"/>
            <polygon class="cls-19" points="391.84 249.24 395.41 247.74 396.69 250.41 394.89 251.89 392.85 252.03 391.84 249.24"/>
          </g>
          <path class="cls-17" d="m397.41,243.62l1.8,4.31-4.64,2.81-5.26,1.34-1.8-4.31s1.51-2.24,4.38-3.44c2.87-1.2,5.52-.71,5.52-.71Z"/>
        </g>
        <g>
          <g>
            <polygon class="cls-17" points="414.93 245.36 410.8 247.09 408.69 241.27 412.27 239.77 414.93 245.36"/>
            <polygon class="cls-19" points="408.69 241.27 412.27 239.77 413.54 242.44 411.74 243.92 409.7 244.06 408.69 241.27"/>
          </g>
          <path class="cls-17" d="m414.26,235.65l1.8,4.31-4.64,2.81-5.26,1.34-1.8-4.31s1.51-2.24,4.38-3.44c2.87-1.2,5.52-.71,5.52-.71Z"/>
        </g>
      </g>
      <g>
        <path class="cls-10" d="m337.72,294.76s3.66-3.04,6.8-2.68c3.15.36,8.65,8.9,10.59,11.16,1.93,2.26-4.61,15.6-5.16,16.55-.55.95-1.72.64-1.72.64,0,0,1.35,2.16-3.76,2.45,0,0,.66,2.64-3.86,2.91-4.37.26-29.93-2.28-31.91-3.75,0,0,20.21-7.1,20.22-6.75s-1.59-4.8-.92-5.91c.66-1.11,1.44-2.29,4.59-1.81,0,0-.09-2.9,6.04-3.56l-2.04-1.91s-2.52,1.01-3.61-.35-.91-2.99-.91-2.99l5.64-4Z"/>
        <path class="cls-13" d="m334.98,317.48c-.13.24-1.57-.34-3.37-.89-1.8-.56-3.31-.91-3.28-1.17.02-.25,1.66-.33,3.56.27,1.91.59,3.22,1.58,3.09,1.8Z"/>
        <path class="cls-13" d="m332.12,307.84c.02-.1,1.27,0,3.13.73,1.86.71,4.32,2.14,6.42,4.38,2.09,2.22,3.51,4.76,3.71,6.85.23,2.14-.84,3.21-.89,3.1-.15-.07.61-1.14.23-3.01-.33-1.84-1.74-4.17-3.74-6.3-4.05-4.35-8.99-5.5-8.86-5.77Z"/>
        <path class="cls-13" d="m349.01,317.37c-.15-.04.18-1.16.08-2.96-.07-1.78-.71-4.3-2.49-6.36-1.79-2.05-4.2-3.04-5.94-3.36-1.77-.35-2.93-.18-2.94-.34-.03-.1,1.12-.52,3.04-.33,1.89.17,4.58,1.13,6.56,3.4,1.97,2.28,2.54,5.08,2.44,6.98-.08,1.93-.66,3.01-.76,2.97Z"/>
        <path class="cls-13" d="m349.59,301.47c-.1.1-.76-.53-1.83-1.45-1.04-.89-2.69-2.13-4.71-2.07-2.01.12-3.54,1.51-4.5,2.49-.98,1.02-1.58,1.7-1.69,1.61-.09-.07.3-.88,1.19-2.05.87-1.11,2.47-2.82,4.96-3,2.51-.06,4.25,1.5,5.22,2.53.99,1.09,1.45,1.86,1.36,1.94Z"/>
      </g>
      <g>
        <g>
          <path class="cls-10" d="m92.19,326.59s11.79,18.26,14.56,21.44,12.34,14.15,16.76,13.12c0,0,2-.26,1.68-3.12,0,0,1.58.73,3.55-.74,1.97-1.46,1.76-3.24,1.76-3.24,0,0,2.28,1.01,4.33-.45,2.05-1.46,2.36-3.73,2.36-3.73,0,0,6.36,8.75,8.15,9.37,1.97.68,4.29.72,4.61-1.62.31-2.34-1.16-4.55-2.57-7.17-1.29-2.41-6.86-12.87-6.86-12.87,0,0,6.63.64,8.88-.44,2.25-1.08,2.88-3.28,2.52-4.9-.36-1.62-.13-1.63-2.76-1.39-2.63.24-4.95.63-7.01-.55-2.06-1.18-4.34-6.93-8.07-9.52-3.73-2.6-26.45-10.32-26.45-10.32l-15.43,16.14Z"/>
          <path class="cls-13" d="m124.92,358.26c-.19.18-2.45-1.9-5.04-4.66-2.59-2.75-4.54-5.13-4.35-5.31s2.45,1.9,5.04,4.66c2.59,2.75,4.54,5.13,4.35,5.31Z"/>
          <path class="cls-13" d="m130.49,354.04c-.19.19-2.36-1.82-4.68-4.57-2.32-2.75-4.14-5.01-3.96-5.19.19-.19,2.36,1.82,4.68,4.57,2.32,2.75,4.14,5.01,3.96,5.19Z"/>
          <path class="cls-13" d="m137.38,350.01c-.22.14-2.01-2.36-3.99-5.58-1.98-3.22-3.41-5.94-3.19-6.08.22-.14,2.01,2.36,3.99,5.58,1.98,3.22,3.41,5.94,3.18,6.08Z"/>
          <path class="cls-13" d="m140.89,338.26c-.19.11-2.76-3.36-5.92-7.7-3.17-4.33-5.42-8.1-5.15-8.25.19-.11,2.76,3.36,5.93,7.7,3.16,4.33,5.42,8.09,5.15,8.25Z"/>
        </g>
        <path class="cls-10" d="m58.73,213.14c.36.97-51.41,59.08-42.8,72.22,8.61,13.14,59.53,40.17,80.65,45.38l14.38-15.31-50.15-41.44,34.86-42.41-36.93-18.45Z"/>
        <path class="cls-12" d="m43.76,215.74c1.01.95,42.5,34.59,42.5,34.59l22.14-33.36c5.46-13.27,18.47-57.85,18.47-57.85,0,0-26.12-3.7-38.82,9.03-16.76,16.8-44.29,47.59-44.29,47.59Z"/>
        <path class="cls-21" d="m112.86,212.02c.22.15-5.57,8.85-12.91,19.43-7.35,10.58-13.48,19.04-13.69,18.89-.22-.15,5.57-8.85,12.91-19.43,7.35-10.58,13.48-19.04,13.69-18.89Z"/>
        <path class="cls-13" d="m44.01,279.43c-.18-.15,2.9-3.08,7.8-4.6,4.88-1.57,9.09-.93,9.03-.71,0,.3-4.07.11-8.74,1.61-4.69,1.45-7.91,3.94-8.08,3.7Z"/>
      </g>
    </g>
  </g>
</svg>