<svg width="1180" height="357" viewBox="0 0 1180 357" fill="none" xmlns="http://www.w3.org/2000/svg">
<path d="M140.201 357C12.9033 357 0 277.083 0 178.5C0 79.9172 12.9033 0 140.201 0C174.462 0 206.921 7.85354 236.092 20.3145C284.925 41.1741 342.309 41.0763 393.33 26.357C407.4 22.2977 422.087 19.9153 437.172 19.9153C539.536 19.9153 584 90.9986 584 178.684C584 266.37 539.536 337.454 437.172 337.454C422.148 337.454 407.542 335.184 393.554 331.283C342.401 317.014 284.81 316.867 235.792 337.298C206.671 349.436 174.301 357 140.201 357Z" fill="url(#paint0_linear_67_138)"/>
<path fill-rule="evenodd" clip-rule="evenodd" d="M165.514 128H133.48V145.53C128.58 150.192 125 164.979 125 182.5C125 200.021 128.58 214.808 133.48 219.47V241H165.514V128Z" fill="url(#paint1_linear_67_138)"/>
<g filter="url(#filter0_d_67_138)">
<path d="M330.016 152.226H1058V219.581H330.016V152.226Z" fill="url(#paint2_linear_67_138)"/>
<g filter="url(#filter1_d_67_138)">
<line x1="379.245" y1="219.3" x2="379.245" y2="152.6" stroke="url(#paint3_linear_67_138)" stroke-width="6"/>
</g>
<g filter="url(#filter2_d_67_138)">
<line x1="418.983" y1="219.3" x2="418.983" y2="152.6" stroke="url(#paint4_linear_67_138)" stroke-width="6"/>
</g>
<g filter="url(#filter3_d_67_138)">
<line x1="458.722" y1="219.3" x2="458.722" y2="152.6" stroke="url(#paint5_linear_67_138)" stroke-width="6"/>
</g>
<g filter="url(#filter4_d_67_138)">
<line x1="498.461" y1="219.3" x2="498.461" y2="152.6" stroke="url(#paint6_linear_67_138)" stroke-width="6"/>
</g>
<g filter="url(#filter5_d_67_138)">
<line x1="538.199" y1="219.3" x2="538.199" y2="152.6" stroke="url(#paint7_linear_67_138)" stroke-width="6"/>
</g>
<g filter="url(#filter6_d_67_138)">
<line x1="577.938" y1="219.3" x2="577.938" y2="152.6" stroke="url(#paint8_linear_67_138)" stroke-width="6"/>
</g>
<line y1="-0.5" x2="10.3233" y2="-0.5" transform="matrix(0.851123 -0.524966 0.492647 0.870229 635.455 169.692)" stroke="#804A2C"/>
<line x1="621.077" y1="169.192" x2="651.829" y2="169.192" stroke="#804A2C"/>
<line y1="-0.5" x2="10.3233" y2="-0.5" transform="matrix(0.851123 -0.524966 0.492647 0.870229 610.294 175.111)" stroke="#804A2C"/>
<line x1="595.916" y1="174.611" x2="626.669" y2="174.611" stroke="#804A2C"/>
<line y1="-0.5" x2="10.3233" y2="-0.5" transform="matrix(0.851123 -0.524966 0.492647 0.870229 658.619 164.273)" stroke="#804A2C"/>
<line x1="644.241" y1="163.773" x2="674.993" y2="163.773" stroke="#8F5434"/>
<line y1="-0.5" x2="10.3233" y2="-0.5" transform="matrix(0.851123 -0.524966 0.492647 0.870229 700.155 175.945)" stroke="#8F5434"/>
<line x1="685.777" y1="175.445" x2="716.529" y2="175.445" stroke="#8F5434"/>
<line y1="-0.5" x2="10.3233" y2="-0.5" transform="matrix(0.851123 -0.524966 0.492647 0.870229 674.994 181.364)" stroke="#8F5434"/>
<line x1="660.616" y1="180.864" x2="691.369" y2="180.864" stroke="#8F5434"/>
<line y1="-0.5" x2="10.3233" y2="-0.5" transform="matrix(0.851123 -0.524966 0.492647 0.870229 723.319 170.526)" stroke="#8F5434"/>
<line x1="708.941" y1="170.026" x2="739.693" y2="170.026" stroke="#8F5434"/>
<line y1="-0.5" x2="10.3233" y2="-0.5" transform="matrix(0.851123 -0.524966 0.492647 0.870229 644.241 193.037)" stroke="#8F5434"/>
<line x1="629.864" y1="192.537" x2="660.616" y2="192.537" stroke="#804A2C"/>
<line y1="-0.5" x2="10.3233" y2="-0.5" transform="matrix(0.851123 -0.524966 0.492647 0.870229 619.081 198.456)" stroke="#804A2C"/>
<line x1="604.702" y1="197.956" x2="635.455" y2="197.956" stroke="#804A2C"/>
<line y1="-0.5" x2="10.3233" y2="-0.5" transform="matrix(0.851123 -0.524966 0.492647 0.870229 667.406 187.618)" stroke="#804A2C"/>
<line x1="653.027" y1="187.118" x2="683.78" y2="187.118" stroke="#804A2C"/>
<line y1="-0.5" x2="10.3233" y2="-0.5" transform="matrix(0.851123 -0.524966 0.492647 0.870229 938.984 171.359)" stroke="#82492A"/>
<line x1="924.607" y1="170.859" x2="955.359" y2="170.859" stroke="#82492A"/>
<line y1="-0.5" x2="10.3233" y2="-0.5" transform="matrix(0.851123 -0.524966 0.492647 0.870229 913.824 176.779)" stroke="#82492A"/>
<line x1="899.446" y1="176.279" x2="930.198" y2="176.279" stroke="#82492A"/>
<line y1="-0.5" x2="10.3233" y2="-0.5" transform="matrix(0.851123 -0.524966 0.492647 0.870229 962.149 165.94)" stroke="#82492A"/>
<line x1="947.771" y1="165.44" x2="978.523" y2="165.44" stroke="#82492A"/>
<line y1="-0.5" x2="10.3233" y2="-0.5" transform="matrix(0.851123 -0.524966 0.492647 0.870229 1003.68 177.612)" stroke="#82492A"/>
<line x1="989.306" y1="177.112" x2="1020.06" y2="177.112" stroke="#82492A"/>
<line y1="-0.5" x2="10.3233" y2="-0.5" transform="matrix(0.851123 -0.524966 0.492647 0.870229 978.523 183.032)" stroke="#82492A"/>
<line x1="964.145" y1="182.532" x2="994.898" y2="182.532" stroke="#82492A"/>
<line y1="-0.5" x2="10.3233" y2="-0.5" transform="matrix(0.851123 -0.524966 0.492647 0.870229 1026.85 172.193)" stroke="#82492A"/>
<line x1="1012.47" y1="171.693" x2="1043.22" y2="171.693" stroke="#82492A"/>
<line y1="-0.5" x2="10.3233" y2="-0.5" transform="matrix(0.851123 -0.524966 0.492647 0.870229 947.771 194.704)" stroke="#82492A"/>
<line x1="933.393" y1="194.204" x2="964.146" y2="194.204" stroke="#82492A"/>
<line y1="-0.5" x2="10.3233" y2="-0.5" transform="matrix(0.851123 -0.524966 0.492647 0.870229 922.61 200.124)" stroke="#82492A"/>
<line x1="908.232" y1="199.624" x2="938.984" y2="199.624" stroke="#82492A"/>
<line y1="-0.5" x2="10.3233" y2="-0.5" transform="matrix(0.851123 -0.524966 0.492647 0.870229 970.935 189.285)" stroke="#82492A"/>
<line x1="956.557" y1="188.785" x2="987.31" y2="188.785" stroke="#82492A"/>
<line y1="-0.5" x2="9.23934" y2="-0.5" transform="matrix(-0.739648 0.672994 -0.35828 -0.933614 831.152 198.943)" stroke="#7B4528"/>
<line x1="842.334" y1="199.443" x2="818.416" y2="199.443" stroke="#7B4528"/>
<line y1="-0.5" x2="9.23934" y2="-0.5" transform="matrix(-0.739648 0.672994 -0.35828 -0.933614 850.721 192.725)" stroke="#7B4528"/>
<line x1="861.904" y1="193.225" x2="837.986" y2="193.225" stroke="#7B4528"/>
<line y1="-0.5" x2="9.23934" y2="-0.5" transform="matrix(-0.739648 0.672994 -0.35828 -0.933614 813.135 205.161)" stroke="#7B4528"/>
<line x1="824.318" y1="205.661" x2="800.399" y2="205.661" stroke="#7B4528"/>
<line y1="-0.5" x2="9.23934" y2="-0.5" transform="matrix(-0.739648 0.672994 -0.35828 -0.933614 780.83 191.769)" stroke="#7B4528"/>
<line x1="792.012" y1="192.269" x2="768.094" y2="192.269" stroke="#7B4528"/>
<line y1="-0.5" x2="9.23934" y2="-0.5" transform="matrix(-0.739648 0.672994 -0.35828 -0.933614 800.399 185.551)" stroke="#7B4528"/>
<line x1="811.582" y1="186.051" x2="787.664" y2="186.051" stroke="#7B4528"/>
<line y1="-0.5" x2="9.23934" y2="-0.5" transform="matrix(-0.739648 0.672994 -0.35828 -0.933614 762.813 197.987)" stroke="#7B4528"/>
<line x1="773.996" y1="198.487" x2="750.077" y2="198.487" stroke="#7B4528"/>
<line y1="-0.5" x2="9.23934" y2="-0.5" transform="matrix(-0.739648 0.672994 -0.35828 -0.933614 824.318 172.158)" stroke="#7B4528"/>
<line x1="835.5" y1="172.658" x2="811.582" y2="172.658" stroke="#7B4528"/>
<line y1="-0.5" x2="9.23934" y2="-0.5" transform="matrix(-0.739648 0.672994 -0.35828 -0.933614 843.887 165.94)" stroke="#7B4528"/>
<line x1="855.07" y1="166.44" x2="831.151" y2="166.44" stroke="#7B4528"/>
<line y1="-0.5" x2="9.23934" y2="-0.5" transform="matrix(-0.739648 0.672994 -0.35828 -0.933614 806.301 178.376)" stroke="#7B4528"/>
<line x1="817.484" y1="178.876" x2="793.566" y2="178.876" stroke="#7B4528"/>
<line y1="-0.5" x2="10.3233" y2="-0.5" transform="matrix(0.851123 -0.524966 0.492647 0.870229 368.561 176.603)" stroke="#804A2C"/>
<line x1="354.184" y1="176.103" x2="384.936" y2="176.103" stroke="#804A2C"/>
<line y1="-0.5" x2="10.3233" y2="-0.5" transform="matrix(0.851123 -0.524966 0.492647 0.870229 343.4 182.023)" stroke="#804A2C"/>
<line x1="329.022" y1="181.523" x2="359.775" y2="181.523" stroke="#804A2C"/>
<line y1="-0.5" x2="10.3233" y2="-0.5" transform="matrix(0.851123 -0.524966 0.492647 0.870229 391.725 171.184)" stroke="#804A2C"/>
<line x1="377.348" y1="170.684" x2="408.1" y2="170.684" stroke="#8F5434"/>
<line y1="-0.5" x2="10.3233" y2="-0.5" transform="matrix(0.851123 -0.524966 0.492647 0.870229 433.261 182.856)" stroke="#8F5434"/>
<line x1="418.883" y1="182.356" x2="449.636" y2="182.356" stroke="#8F5434"/>
<line y1="-0.5" x2="10.3233" y2="-0.5" transform="matrix(0.851123 -0.524966 0.492647 0.870229 408.1 188.276)" stroke="#8F5434"/>
<line x1="393.722" y1="187.776" x2="424.475" y2="187.776" stroke="#8F5434"/>
<line y1="-0.5" x2="10.3233" y2="-0.5" transform="matrix(0.851123 -0.524966 0.492647 0.870229 456.425 177.437)" stroke="#8F5434"/>
<line x1="442.047" y1="176.937" x2="472.8" y2="176.937" stroke="#8F5434"/>
<line y1="-0.5" x2="10.3233" y2="-0.5" transform="matrix(0.851123 -0.524966 0.492647 0.870229 377.348 199.948)" stroke="#8F5434"/>
<line x1="362.97" y1="199.448" x2="393.723" y2="199.448" stroke="#804A2C"/>
<line y1="-0.5" x2="10.3233" y2="-0.5" transform="matrix(0.851123 -0.524966 0.492647 0.870229 352.187 205.368)" stroke="#804A2C"/>
<line x1="337.809" y1="204.868" x2="368.561" y2="204.868" stroke="#804A2C"/>
<line y1="-0.5" x2="10.3233" y2="-0.5" transform="matrix(0.851123 -0.524966 0.492647 0.870229 400.511 194.529)" stroke="#804A2C"/>
<line x1="386.134" y1="194.029" x2="416.887" y2="194.029" stroke="#804A2C"/>
<line y1="-0.5" x2="10.3233" y2="-0.5" transform="matrix(0.851123 -0.524966 0.492647 0.870229 672.091 178.271)" stroke="#82492A"/>
<line x1="657.713" y1="177.771" x2="688.465" y2="177.771" stroke="#82492A"/>
<line y1="-0.5" x2="10.3233" y2="-0.5" transform="matrix(0.851123 -0.524966 0.492647 0.870229 646.929 183.69)" stroke="#82492A"/>
<line x1="632.552" y1="183.19" x2="663.304" y2="183.19" stroke="#82492A"/>
<line y1="-0.5" x2="10.3233" y2="-0.5" transform="matrix(0.851123 -0.524966 0.492647 0.870229 695.255 172.851)" stroke="#82492A"/>
<line x1="680.877" y1="172.351" x2="711.629" y2="172.351" stroke="#82492A"/>
<line y1="-0.5" x2="10.3233" y2="-0.5" transform="matrix(0.851123 -0.524966 0.492647 0.870229 736.791 184.524)" stroke="#82492A"/>
<line x1="722.413" y1="184.024" x2="753.165" y2="184.024" stroke="#82492A"/>
<line y1="-0.5" x2="10.3233" y2="-0.5" transform="matrix(0.851123 -0.524966 0.492647 0.870229 711.63 189.943)" stroke="#82492A"/>
<line x1="697.252" y1="189.443" x2="728.004" y2="189.443" stroke="#82492A"/>
<line y1="-0.5" x2="10.3233" y2="-0.5" transform="matrix(0.851123 -0.524966 0.492647 0.870229 759.955 179.104)" stroke="#82492A"/>
<line x1="745.577" y1="178.604" x2="776.329" y2="178.604" stroke="#82492A"/>
<line y1="-0.5" x2="10.3233" y2="-0.5" transform="matrix(0.851123 -0.524966 0.492647 0.870229 680.877 201.616)" stroke="#82492A"/>
<line x1="666.499" y1="201.116" x2="697.252" y2="201.116" stroke="#82492A"/>
<line y1="-0.5" x2="10.3233" y2="-0.5" transform="matrix(0.851123 -0.524966 0.492647 0.870229 655.716 207.035)" stroke="#82492A"/>
<line x1="641.338" y1="206.535" x2="672.091" y2="206.535" stroke="#82492A"/>
<line y1="-0.5" x2="10.3233" y2="-0.5" transform="matrix(0.851123 -0.524966 0.492647 0.870229 704.042 196.197)" stroke="#82492A"/>
<line x1="689.663" y1="195.697" x2="720.416" y2="195.697" stroke="#82492A"/>
<line y1="-0.5" x2="9.23934" y2="-0.5" transform="matrix(-0.739648 0.672994 -0.35828 -0.933614 564.258 205.855)" stroke="#7B4528"/>
<line x1="575.44" y1="206.355" x2="551.522" y2="206.355" stroke="#7B4528"/>
<line y1="-0.5" x2="9.23934" y2="-0.5" transform="matrix(-0.739648 0.672994 -0.35828 -0.933614 583.828 199.637)" stroke="#7B4528"/>
<line x1="595.01" y1="200.137" x2="571.092" y2="200.137" stroke="#7B4528"/>
<line y1="-0.5" x2="9.23934" y2="-0.5" transform="matrix(-0.739648 0.672994 -0.35828 -0.933614 546.241 212.073)" stroke="#7B4528"/>
<line x1="557.424" y1="212.573" x2="533.506" y2="212.573" stroke="#7B4528"/>
<line y1="-0.5" x2="9.23934" y2="-0.5" transform="matrix(-0.739648 0.672994 -0.35828 -0.933614 513.936 198.68)" stroke="#7B4528"/>
<line x1="525.119" y1="199.18" x2="501.2" y2="199.18" stroke="#7B4528"/>
<line y1="-0.5" x2="9.23934" y2="-0.5" transform="matrix(-0.739648 0.672994 -0.35828 -0.933614 533.505 192.462)" stroke="#7B4528"/>
<line x1="544.688" y1="192.962" x2="520.77" y2="192.962" stroke="#7B4528"/>
<line y1="-0.5" x2="9.23934" y2="-0.5" transform="matrix(-0.739648 0.672994 -0.35828 -0.933614 495.92 204.898)" stroke="#7B4528"/>
<line x1="507.102" y1="205.398" x2="483.184" y2="205.398" stroke="#7B4528"/>
<line y1="-0.5" x2="9.23934" y2="-0.5" transform="matrix(-0.739648 0.672994 -0.35828 -0.933614 557.424 179.069)" stroke="#7B4528"/>
<line x1="568.607" y1="179.569" x2="544.688" y2="179.569" stroke="#7B4528"/>
<line y1="-0.5" x2="9.23934" y2="-0.5" transform="matrix(-0.739648 0.672994 -0.35828 -0.933614 576.994 172.851)" stroke="#7B4528"/>
<line x1="588.176" y1="173.351" x2="564.258" y2="173.351" stroke="#7B4528"/>
<line y1="-0.5" x2="9.23934" y2="-0.5" transform="matrix(-0.739648 0.672994 -0.35828 -0.933614 539.407 185.287)" stroke="#7B4528"/>
<line x1="550.591" y1="185.787" x2="526.672" y2="185.787" stroke="#7B4528"/>
<g filter="url(#filter7_d_67_138)">
<line x1="618.275" y1="219.3" x2="618.275" y2="152.6" stroke="url(#paint9_linear_67_138)" stroke-width="6"/>
</g>
<g filter="url(#filter8_d_67_138)">
<line x1="658.013" y1="219.3" x2="658.013" y2="152.6" stroke="url(#paint10_linear_67_138)" stroke-width="6"/>
</g>
<g filter="url(#filter9_d_67_138)">
<line x1="697.752" y1="219.3" x2="697.752" y2="152.6" stroke="url(#paint11_linear_67_138)" stroke-width="6"/>
</g>
<g filter="url(#filter10_d_67_138)">
<line x1="737.491" y1="219.3" x2="737.491" y2="152.6" stroke="url(#paint12_linear_67_138)" stroke-width="6"/>
</g>
<g filter="url(#filter11_d_67_138)">
<line x1="777.229" y1="219.3" x2="777.229" y2="152.6" stroke="url(#paint13_linear_67_138)" stroke-width="6"/>
</g>
<g filter="url(#filter12_d_67_138)">
<line x1="816.968" y1="219.3" x2="816.968" y2="152.6" stroke="url(#paint14_linear_67_138)" stroke-width="6"/>
</g>
<g filter="url(#filter13_d_67_138)">
<line x1="856.707" y1="219.3" x2="856.707" y2="152.6" stroke="url(#paint15_linear_67_138)" stroke-width="6"/>
</g>
<g filter="url(#filter14_d_67_138)">
<line x1="896.445" y1="219.3" x2="896.445" y2="152.6" stroke="url(#paint16_linear_67_138)" stroke-width="6"/>
</g>
<g filter="url(#filter15_d_67_138)">
<line x1="936.184" y1="219.3" x2="936.184" y2="152.6" stroke="url(#paint17_linear_67_138)" stroke-width="6"/>
</g>
<g filter="url(#filter16_d_67_138)">
<line x1="975.922" y1="219.3" x2="975.922" y2="152.6" stroke="url(#paint18_linear_67_138)" stroke-width="6"/>
</g>
<rect x="1043" y="141" width="133" height="87" rx="20" fill="url(#paint19_linear_67_138)"/>
<g filter="url(#filter17_d_67_138)">
<line x1="1015.66" y1="219.3" x2="1015.66" y2="152.6" stroke="url(#paint20_linear_67_138)" stroke-width="6"/>
</g>
<g filter="url(#filter18_d_67_138)">
<line x1="1053.5" y1="219.3" x2="1053.5" y2="152.6" stroke="#E3D2C1" stroke-width="9"/>
</g>
<path d="M963.353 186.253C963.353 189.707 960.684 192.506 957.392 192.506C954.1 192.506 951.432 189.707 951.432 186.253C951.432 182.8 954.1 180 957.392 180C960.684 180 963.353 182.8 963.353 186.253Z" fill="#D9D9D9"/>
<path d="M883.876 186.253C883.876 189.707 881.207 192.506 877.915 192.506C874.623 192.506 871.955 189.707 871.955 186.253C871.955 182.8 874.623 180 877.915 180C881.207 180 883.876 182.8 883.876 186.253Z" fill="#D9D9D9"/>
<path d="M724.922 186.253C724.922 189.707 722.253 192.506 718.961 192.506C715.669 192.506 713 189.707 713 186.253C713 182.8 715.669 180 718.961 180C722.253 180 724.922 182.8 724.922 186.253Z" fill="#D9D9D9"/>
<path d="M806.06 185.95C806.06 189.404 803.391 192.203 800.099 192.203C796.807 192.203 794.138 189.404 794.138 185.95C794.138 182.497 796.807 179.697 800.099 179.697C803.391 179.697 806.06 182.497 806.06 185.95Z" fill="#D9D9D9"/>
<path d="M604.585 173.444C604.585 176.897 601.916 179.697 598.624 179.697C595.332 179.697 592.664 176.897 592.664 173.444C592.664 169.99 595.332 167.191 598.624 167.191C601.916 167.191 604.585 169.99 604.585 173.444Z" fill="#D9D9D9"/>
<path d="M604.585 198.456C604.585 201.91 601.916 204.709 598.624 204.709C595.332 204.709 592.664 201.91 592.664 198.456C592.664 195.003 595.332 192.203 598.624 192.203C601.916 192.203 604.585 195.003 604.585 198.456Z" fill="#D9D9D9"/>
<path d="M484.922 186.253C484.922 189.707 482.253 192.506 478.961 192.506C475.669 192.506 473 189.707 473 186.253C473 182.8 475.669 180 478.961 180C482.253 180 484.922 182.8 484.922 186.253Z" fill="#D9D9D9"/>
<path d="M326.922 186.253C326.922 189.707 324.253 192.506 320.961 192.506C317.669 192.506 315 189.707 315 186.253C315 182.8 317.669 180 320.961 180C324.253 180 326.922 182.8 326.922 186.253Z" fill="#D9D9D9"/>
<path d="M404.922 186.253C404.922 189.707 402.253 192.506 398.961 192.506C395.669 192.506 393 189.707 393 186.253C393 182.8 395.669 180 398.961 180C402.253 180 404.922 182.8 404.922 186.253Z" fill="#D9D9D9"/>
<g filter="url(#filter19_d_67_138)">
<ellipse cx="276.128" cy="184.5" rx="72.1284" ry="72.5" fill="#935207"/>
<path d="M347.757 184.5C347.757 224.267 315.685 256.5 276.128 256.5C236.572 256.5 204.5 224.267 204.5 184.5C204.5 144.733 236.572 112.5 276.128 112.5C315.685 112.5 347.757 144.733 347.757 184.5Z" stroke="black"/>
</g>
<g filter="url(#filter20_d_67_138)">
<ellipse cx="275.787" cy="184.5" rx="60.8476" ry="60.9309" fill="url(#paint21_linear_67_138)" shape-rendering="crispEdges"/>
<path d="M336.134 184.5C336.134 217.876 309.115 244.931 275.787 244.931C242.458 244.931 215.439 217.876 215.439 184.5C215.439 151.124 242.458 124.069 275.787 124.069C309.115 124.069 336.134 151.124 336.134 184.5Z" stroke="black" shape-rendering="crispEdges"/>
</g>
<ellipse cx="276.128" cy="184.5" rx="57.0874" ry="57.0745" fill="#292626"/>
</g>
<rect x="152.927" y="154" width="4.96936" height="71" fill="#D9D9D9"/>
<path d="M143.88 171.374H1100L1112.5 156.5" stroke="black"/>
<path d="M144.89 191.633H1125L1143 217" stroke="black"/>
<path d="M143.88 200.537L1100 200.5L1111.5 217" stroke="black"/>
<path d="M143.88 210.3L1073 210.492L1081 218" stroke="black"/>
<path d="M144.89 161.994H1071L1081.5 155.5" stroke="black"/>
<path d="M143.88 181.012H1124L1143.5 156.5" stroke="black"/>
<ellipse cx="143.982" cy="210.8" rx="2.98161" ry="2.6625" fill="#D9D9D9"/>
<ellipse cx="143.982" cy="200.15" rx="2.98161" ry="2.6625" fill="#D9D9D9"/>
<ellipse cx="143.982" cy="191.275" rx="2.98161" ry="2.6625" fill="#D9D9D9"/>
<ellipse cx="143.982" cy="180.625" rx="2.98161" ry="2.6625" fill="#D9D9D9"/>
<ellipse cx="143.982" cy="171.75" rx="2.98161" ry="2.6625" fill="#D9D9D9"/>
<ellipse cx="143.982" cy="161.1" rx="2.98161" ry="2.6625" fill="#D9D9D9"/>
<circle cx="1081.5" cy="154.5" r="6.5" fill="#D9D9D9"/>
<circle cx="1112.5" cy="154.5" r="6.5" fill="#D9D9D9"/>
<circle cx="1143.5" cy="154.5" r="6.5" fill="#D9D9D9"/>
<circle cx="1081.5" cy="217.5" r="6.5" fill="#D9D9D9"/>
<circle cx="1112.5" cy="217.5" r="6.5" fill="#D9D9D9"/>
<circle cx="1143.5" cy="217.5" r="6.5" fill="#D9D9D9"/>
<rect x="1079" y="124" width="6" height="17" fill="#D9D9D9"/>
<ellipse cx="1082" cy="128.5" rx="8" ry="5.5" fill="#D9D9D9"/>
<rect x="1141" y="124" width="6" height="17" fill="#D9D9D9"/>
<ellipse cx="1144" cy="128.5" rx="8" ry="5.5" fill="#D9D9D9"/>
<rect x="1110" y="124" width="6" height="17" fill="#D9D9D9"/>
<ellipse cx="1113" cy="128.5" rx="8" ry="5.5" fill="#D9D9D9"/>
<rect width="6" height="17" transform="matrix(1 0 0 -1 1079 245)" fill="#D9D9D9"/>
<ellipse cx="8" cy="5.5" rx="8" ry="5.5" transform="matrix(1 0 0 -1 1074 246)" fill="#D9D9D9"/>
<rect width="6" height="17" transform="matrix(1 0 0 -1 1141 245)" fill="#D9D9D9"/>
<ellipse cx="8" cy="5.5" rx="8" ry="5.5" transform="matrix(1 0 0 -1 1136 246)" fill="#D9D9D9"/>
<rect width="6" height="17" transform="matrix(1 0 0 -1 1110 245)" fill="#D9D9D9"/>
<ellipse cx="8" cy="5.5" rx="8" ry="5.5" transform="matrix(1 0 0 -1 1105 246)" fill="#D9D9D9"/>
<defs>
<filter id="filter0_d_67_138" x="200" y="112" width="980" height="153" filterUnits="userSpaceOnUse" color-interpolation-filters="sRGB">
<feFlood flood-opacity="0" result="BackgroundImageFix"/>
<feColorMatrix in="SourceAlpha" type="matrix" values="0 0 0 0 0 0 0 0 0 0 0 0 0 0 0 0 0 0 127 0" result="hardAlpha"/>
<feOffset dy="4"/>
<feGaussianBlur stdDeviation="2"/>
<feComposite in2="hardAlpha" operator="out"/>
<feColorMatrix type="matrix" values="0 0 0 0 0 0 0 0 0 0 0 0 0 0 0 0 0 0 0.25 0"/>
<feBlend mode="normal" in2="BackgroundImageFix" result="effect1_dropShadow_67_138"/>
<feBlend mode="normal" in="SourceGraphic" in2="effect1_dropShadow_67_138" result="shape"/>
</filter>
<filter id="filter1_d_67_138" x="372.245" y="148.6" width="14" height="74.7" filterUnits="userSpaceOnUse" color-interpolation-filters="sRGB">
<feFlood flood-opacity="0" result="BackgroundImageFix"/>
<feColorMatrix in="SourceAlpha" type="matrix" values="0 0 0 0 0 0 0 0 0 0 0 0 0 0 0 0 0 0 127 0" result="hardAlpha"/>
<feOffset/>
<feGaussianBlur stdDeviation="2"/>
<feComposite in2="hardAlpha" operator="out"/>
<feColorMatrix type="matrix" values="0 0 0 0 0.191667 0 0 0 0 0.185022 0 0 0 0 0.181285 0 0 0 1 0"/>
<feBlend mode="normal" in2="BackgroundImageFix" result="effect1_dropShadow_67_138"/>
<feBlend mode="normal" in="SourceGraphic" in2="effect1_dropShadow_67_138" result="shape"/>
</filter>
<filter id="filter2_d_67_138" x="411.983" y="148.6" width="14" height="74.7" filterUnits="userSpaceOnUse" color-interpolation-filters="sRGB">
<feFlood flood-opacity="0" result="BackgroundImageFix"/>
<feColorMatrix in="SourceAlpha" type="matrix" values="0 0 0 0 0 0 0 0 0 0 0 0 0 0 0 0 0 0 127 0" result="hardAlpha"/>
<feOffset/>
<feGaussianBlur stdDeviation="2"/>
<feComposite in2="hardAlpha" operator="out"/>
<feColorMatrix type="matrix" values="0 0 0 0 0.191667 0 0 0 0 0.185022 0 0 0 0 0.181285 0 0 0 1 0"/>
<feBlend mode="normal" in2="BackgroundImageFix" result="effect1_dropShadow_67_138"/>
<feBlend mode="normal" in="SourceGraphic" in2="effect1_dropShadow_67_138" result="shape"/>
</filter>
<filter id="filter3_d_67_138" x="451.722" y="148.6" width="14" height="74.7" filterUnits="userSpaceOnUse" color-interpolation-filters="sRGB">
<feFlood flood-opacity="0" result="BackgroundImageFix"/>
<feColorMatrix in="SourceAlpha" type="matrix" values="0 0 0 0 0 0 0 0 0 0 0 0 0 0 0 0 0 0 127 0" result="hardAlpha"/>
<feOffset/>
<feGaussianBlur stdDeviation="2"/>
<feComposite in2="hardAlpha" operator="out"/>
<feColorMatrix type="matrix" values="0 0 0 0 0.191667 0 0 0 0 0.185022 0 0 0 0 0.181285 0 0 0 1 0"/>
<feBlend mode="normal" in2="BackgroundImageFix" result="effect1_dropShadow_67_138"/>
<feBlend mode="normal" in="SourceGraphic" in2="effect1_dropShadow_67_138" result="shape"/>
</filter>
<filter id="filter4_d_67_138" x="491.461" y="148.6" width="14" height="74.7" filterUnits="userSpaceOnUse" color-interpolation-filters="sRGB">
<feFlood flood-opacity="0" result="BackgroundImageFix"/>
<feColorMatrix in="SourceAlpha" type="matrix" values="0 0 0 0 0 0 0 0 0 0 0 0 0 0 0 0 0 0 127 0" result="hardAlpha"/>
<feOffset/>
<feGaussianBlur stdDeviation="2"/>
<feComposite in2="hardAlpha" operator="out"/>
<feColorMatrix type="matrix" values="0 0 0 0 0.191667 0 0 0 0 0.185022 0 0 0 0 0.181285 0 0 0 1 0"/>
<feBlend mode="normal" in2="BackgroundImageFix" result="effect1_dropShadow_67_138"/>
<feBlend mode="normal" in="SourceGraphic" in2="effect1_dropShadow_67_138" result="shape"/>
</filter>
<filter id="filter5_d_67_138" x="531.199" y="148.6" width="14" height="74.7" filterUnits="userSpaceOnUse" color-interpolation-filters="sRGB">
<feFlood flood-opacity="0" result="BackgroundImageFix"/>
<feColorMatrix in="SourceAlpha" type="matrix" values="0 0 0 0 0 0 0 0 0 0 0 0 0 0 0 0 0 0 127 0" result="hardAlpha"/>
<feOffset/>
<feGaussianBlur stdDeviation="2"/>
<feComposite in2="hardAlpha" operator="out"/>
<feColorMatrix type="matrix" values="0 0 0 0 0.191667 0 0 0 0 0.185022 0 0 0 0 0.181285 0 0 0 1 0"/>
<feBlend mode="normal" in2="BackgroundImageFix" result="effect1_dropShadow_67_138"/>
<feBlend mode="normal" in="SourceGraphic" in2="effect1_dropShadow_67_138" result="shape"/>
</filter>
<filter id="filter6_d_67_138" x="570.938" y="148.6" width="14" height="74.7" filterUnits="userSpaceOnUse" color-interpolation-filters="sRGB">
<feFlood flood-opacity="0" result="BackgroundImageFix"/>
<feColorMatrix in="SourceAlpha" type="matrix" values="0 0 0 0 0 0 0 0 0 0 0 0 0 0 0 0 0 0 127 0" result="hardAlpha"/>
<feOffset/>
<feGaussianBlur stdDeviation="2"/>
<feComposite in2="hardAlpha" operator="out"/>
<feColorMatrix type="matrix" values="0 0 0 0 0.191667 0 0 0 0 0.185022 0 0 0 0 0.181285 0 0 0 1 0"/>
<feBlend mode="normal" in2="BackgroundImageFix" result="effect1_dropShadow_67_138"/>
<feBlend mode="normal" in="SourceGraphic" in2="effect1_dropShadow_67_138" result="shape"/>
</filter>
<filter id="filter7_d_67_138" x="611.275" y="148.6" width="14" height="74.7" filterUnits="userSpaceOnUse" color-interpolation-filters="sRGB">
<feFlood flood-opacity="0" result="BackgroundImageFix"/>
<feColorMatrix in="SourceAlpha" type="matrix" values="0 0 0 0 0 0 0 0 0 0 0 0 0 0 0 0 0 0 127 0" result="hardAlpha"/>
<feOffset/>
<feGaussianBlur stdDeviation="2"/>
<feComposite in2="hardAlpha" operator="out"/>
<feColorMatrix type="matrix" values="0 0 0 0 0.191667 0 0 0 0 0.185022 0 0 0 0 0.181285 0 0 0 1 0"/>
<feBlend mode="normal" in2="BackgroundImageFix" result="effect1_dropShadow_67_138"/>
<feBlend mode="normal" in="SourceGraphic" in2="effect1_dropShadow_67_138" result="shape"/>
</filter>
<filter id="filter8_d_67_138" x="651.013" y="148.6" width="14" height="74.7" filterUnits="userSpaceOnUse" color-interpolation-filters="sRGB">
<feFlood flood-opacity="0" result="BackgroundImageFix"/>
<feColorMatrix in="SourceAlpha" type="matrix" values="0 0 0 0 0 0 0 0 0 0 0 0 0 0 0 0 0 0 127 0" result="hardAlpha"/>
<feOffset/>
<feGaussianBlur stdDeviation="2"/>
<feComposite in2="hardAlpha" operator="out"/>
<feColorMatrix type="matrix" values="0 0 0 0 0.191667 0 0 0 0 0.185022 0 0 0 0 0.181285 0 0 0 1 0"/>
<feBlend mode="normal" in2="BackgroundImageFix" result="effect1_dropShadow_67_138"/>
<feBlend mode="normal" in="SourceGraphic" in2="effect1_dropShadow_67_138" result="shape"/>
</filter>
<filter id="filter9_d_67_138" x="690.752" y="148.6" width="14" height="74.7" filterUnits="userSpaceOnUse" color-interpolation-filters="sRGB">
<feFlood flood-opacity="0" result="BackgroundImageFix"/>
<feColorMatrix in="SourceAlpha" type="matrix" values="0 0 0 0 0 0 0 0 0 0 0 0 0 0 0 0 0 0 127 0" result="hardAlpha"/>
<feOffset/>
<feGaussianBlur stdDeviation="2"/>
<feComposite in2="hardAlpha" operator="out"/>
<feColorMatrix type="matrix" values="0 0 0 0 0.191667 0 0 0 0 0.185022 0 0 0 0 0.181285 0 0 0 1 0"/>
<feBlend mode="normal" in2="BackgroundImageFix" result="effect1_dropShadow_67_138"/>
<feBlend mode="normal" in="SourceGraphic" in2="effect1_dropShadow_67_138" result="shape"/>
</filter>
<filter id="filter10_d_67_138" x="730.491" y="148.6" width="14" height="74.7" filterUnits="userSpaceOnUse" color-interpolation-filters="sRGB">
<feFlood flood-opacity="0" result="BackgroundImageFix"/>
<feColorMatrix in="SourceAlpha" type="matrix" values="0 0 0 0 0 0 0 0 0 0 0 0 0 0 0 0 0 0 127 0" result="hardAlpha"/>
<feOffset/>
<feGaussianBlur stdDeviation="2"/>
<feComposite in2="hardAlpha" operator="out"/>
<feColorMatrix type="matrix" values="0 0 0 0 0.191667 0 0 0 0 0.185022 0 0 0 0 0.181285 0 0 0 1 0"/>
<feBlend mode="normal" in2="BackgroundImageFix" result="effect1_dropShadow_67_138"/>
<feBlend mode="normal" in="SourceGraphic" in2="effect1_dropShadow_67_138" result="shape"/>
</filter>
<filter id="filter11_d_67_138" x="770.229" y="148.6" width="14" height="74.7" filterUnits="userSpaceOnUse" color-interpolation-filters="sRGB">
<feFlood flood-opacity="0" result="BackgroundImageFix"/>
<feColorMatrix in="SourceAlpha" type="matrix" values="0 0 0 0 0 0 0 0 0 0 0 0 0 0 0 0 0 0 127 0" result="hardAlpha"/>
<feOffset/>
<feGaussianBlur stdDeviation="2"/>
<feComposite in2="hardAlpha" operator="out"/>
<feColorMatrix type="matrix" values="0 0 0 0 0.191667 0 0 0 0 0.185022 0 0 0 0 0.181285 0 0 0 1 0"/>
<feBlend mode="normal" in2="BackgroundImageFix" result="effect1_dropShadow_67_138"/>
<feBlend mode="normal" in="SourceGraphic" in2="effect1_dropShadow_67_138" result="shape"/>
</filter>
<filter id="filter12_d_67_138" x="809.968" y="148.6" width="14" height="74.7" filterUnits="userSpaceOnUse" color-interpolation-filters="sRGB">
<feFlood flood-opacity="0" result="BackgroundImageFix"/>
<feColorMatrix in="SourceAlpha" type="matrix" values="0 0 0 0 0 0 0 0 0 0 0 0 0 0 0 0 0 0 127 0" result="hardAlpha"/>
<feOffset/>
<feGaussianBlur stdDeviation="2"/>
<feComposite in2="hardAlpha" operator="out"/>
<feColorMatrix type="matrix" values="0 0 0 0 0.191667 0 0 0 0 0.185022 0 0 0 0 0.181285 0 0 0 1 0"/>
<feBlend mode="normal" in2="BackgroundImageFix" result="effect1_dropShadow_67_138"/>
<feBlend mode="normal" in="SourceGraphic" in2="effect1_dropShadow_67_138" result="shape"/>
</filter>
<filter id="filter13_d_67_138" x="849.707" y="148.6" width="14" height="74.7" filterUnits="userSpaceOnUse" color-interpolation-filters="sRGB">
<feFlood flood-opacity="0" result="BackgroundImageFix"/>
<feColorMatrix in="SourceAlpha" type="matrix" values="0 0 0 0 0 0 0 0 0 0 0 0 0 0 0 0 0 0 127 0" result="hardAlpha"/>
<feOffset/>
<feGaussianBlur stdDeviation="2"/>
<feComposite in2="hardAlpha" operator="out"/>
<feColorMatrix type="matrix" values="0 0 0 0 0.191667 0 0 0 0 0.185022 0 0 0 0 0.181285 0 0 0 1 0"/>
<feBlend mode="normal" in2="BackgroundImageFix" result="effect1_dropShadow_67_138"/>
<feBlend mode="normal" in="SourceGraphic" in2="effect1_dropShadow_67_138" result="shape"/>
</filter>
<filter id="filter14_d_67_138" x="889.445" y="148.6" width="14" height="74.7" filterUnits="userSpaceOnUse" color-interpolation-filters="sRGB">
<feFlood flood-opacity="0" result="BackgroundImageFix"/>
<feColorMatrix in="SourceAlpha" type="matrix" values="0 0 0 0 0 0 0 0 0 0 0 0 0 0 0 0 0 0 127 0" result="hardAlpha"/>
<feOffset/>
<feGaussianBlur stdDeviation="2"/>
<feComposite in2="hardAlpha" operator="out"/>
<feColorMatrix type="matrix" values="0 0 0 0 0.191667 0 0 0 0 0.185022 0 0 0 0 0.181285 0 0 0 1 0"/>
<feBlend mode="normal" in2="BackgroundImageFix" result="effect1_dropShadow_67_138"/>
<feBlend mode="normal" in="SourceGraphic" in2="effect1_dropShadow_67_138" result="shape"/>
</filter>
<filter id="filter15_d_67_138" x="929.184" y="148.6" width="14" height="74.7" filterUnits="userSpaceOnUse" color-interpolation-filters="sRGB">
<feFlood flood-opacity="0" result="BackgroundImageFix"/>
<feColorMatrix in="SourceAlpha" type="matrix" values="0 0 0 0 0 0 0 0 0 0 0 0 0 0 0 0 0 0 127 0" result="hardAlpha"/>
<feOffset/>
<feGaussianBlur stdDeviation="2"/>
<feComposite in2="hardAlpha" operator="out"/>
<feColorMatrix type="matrix" values="0 0 0 0 0.191667 0 0 0 0 0.185022 0 0 0 0 0.181285 0 0 0 1 0"/>
<feBlend mode="normal" in2="BackgroundImageFix" result="effect1_dropShadow_67_138"/>
<feBlend mode="normal" in="SourceGraphic" in2="effect1_dropShadow_67_138" result="shape"/>
</filter>
<filter id="filter16_d_67_138" x="968.922" y="148.6" width="14" height="74.7" filterUnits="userSpaceOnUse" color-interpolation-filters="sRGB">
<feFlood flood-opacity="0" result="BackgroundImageFix"/>
<feColorMatrix in="SourceAlpha" type="matrix" values="0 0 0 0 0 0 0 0 0 0 0 0 0 0 0 0 0 0 127 0" result="hardAlpha"/>
<feOffset/>
<feGaussianBlur stdDeviation="2"/>
<feComposite in2="hardAlpha" operator="out"/>
<feColorMatrix type="matrix" values="0 0 0 0 0.191667 0 0 0 0 0.185022 0 0 0 0 0.181285 0 0 0 1 0"/>
<feBlend mode="normal" in2="BackgroundImageFix" result="effect1_dropShadow_67_138"/>
<feBlend mode="normal" in="SourceGraphic" in2="effect1_dropShadow_67_138" result="shape"/>
</filter>
<filter id="filter17_d_67_138" x="1008.66" y="148.6" width="14" height="74.7" filterUnits="userSpaceOnUse" color-interpolation-filters="sRGB">
<feFlood flood-opacity="0" result="BackgroundImageFix"/>
<feColorMatrix in="SourceAlpha" type="matrix" values="0 0 0 0 0 0 0 0 0 0 0 0 0 0 0 0 0 0 127 0" result="hardAlpha"/>
<feOffset/>
<feGaussianBlur stdDeviation="2"/>
<feComposite in2="hardAlpha" operator="out"/>
<feColorMatrix type="matrix" values="0 0 0 0 0.191667 0 0 0 0 0.185022 0 0 0 0 0.181285 0 0 0 1 0"/>
<feBlend mode="normal" in2="BackgroundImageFix" result="effect1_dropShadow_67_138"/>
<feBlend mode="normal" in="SourceGraphic" in2="effect1_dropShadow_67_138" result="shape"/>
</filter>
<filter id="filter18_d_67_138" x="1045" y="148.6" width="17" height="74.7" filterUnits="userSpaceOnUse" color-interpolation-filters="sRGB">
<feFlood flood-opacity="0" result="BackgroundImageFix"/>
<feColorMatrix in="SourceAlpha" type="matrix" values="0 0 0 0 0 0 0 0 0 0 0 0 0 0 0 0 0 0 127 0" result="hardAlpha"/>
<feOffset/>
<feGaussianBlur stdDeviation="2"/>
<feComposite in2="hardAlpha" operator="out"/>
<feColorMatrix type="matrix" values="0 0 0 0 0.191667 0 0 0 0 0.185022 0 0 0 0 0.181285 0 0 0 1 0"/>
<feBlend mode="normal" in2="BackgroundImageFix" result="effect1_dropShadow_67_138"/>
<feBlend mode="normal" in="SourceGraphic" in2="effect1_dropShadow_67_138" result="shape"/>
</filter>
<filter id="filter19_d_67_138" x="200" y="112" width="152.257" height="153" filterUnits="userSpaceOnUse" color-interpolation-filters="sRGB">
<feFlood flood-opacity="0" result="BackgroundImageFix"/>
<feColorMatrix in="SourceAlpha" type="matrix" values="0 0 0 0 0 0 0 0 0 0 0 0 0 0 0 0 0 0 127 0" result="hardAlpha"/>
<feOffset dy="4"/>
<feGaussianBlur stdDeviation="2"/>
<feComposite in2="hardAlpha" operator="out"/>
<feColorMatrix type="matrix" values="0 0 0 0 0 0 0 0 0 0 0 0 0 0 0 0 0 0 0.25 0"/>
<feBlend mode="normal" in2="BackgroundImageFix" result="effect1_dropShadow_67_138"/>
<feBlend mode="normal" in="SourceGraphic" in2="effect1_dropShadow_67_138" result="shape"/>
</filter>
<filter id="filter20_d_67_138" x="210.939" y="123.569" width="129.695" height="129.862" filterUnits="userSpaceOnUse" color-interpolation-filters="sRGB">
<feFlood flood-opacity="0" result="BackgroundImageFix"/>
<feColorMatrix in="SourceAlpha" type="matrix" values="0 0 0 0 0 0 0 0 0 0 0 0 0 0 0 0 0 0 127 0" result="hardAlpha"/>
<feOffset dy="4"/>
<feGaussianBlur stdDeviation="2"/>
<feComposite in2="hardAlpha" operator="out"/>
<feColorMatrix type="matrix" values="0 0 0 0 0 0 0 0 0 0 0 0 0 0 0 0 0 0 0.25 0"/>
<feBlend mode="normal" in2="BackgroundImageFix" result="effect1_dropShadow_67_138"/>
<feBlend mode="normal" in="SourceGraphic" in2="effect1_dropShadow_67_138" result="shape"/>
</filter>
<linearGradient id="paint0_linear_67_138" x1="292" y1="0" x2="292" y2="357" gradientUnits="userSpaceOnUse">
<stop offset="0.9999" stop-color="#CA884B"/>
<stop offset="1" stop-color="#D9D9D9" stop-opacity="0"/>
</linearGradient>
<linearGradient id="paint1_linear_67_138" x1="149.497" y1="128" x2="149.497" y2="241" gradientUnits="userSpaceOnUse">
<stop stop-color="#803F1B"/>
<stop offset="1" stop-color="#3D1A07"/>
</linearGradient>
<linearGradient id="paint2_linear_67_138" x1="694.008" y1="152.226" x2="694.008" y2="219.581" gradientUnits="userSpaceOnUse">
<stop stop-color="#803F1B"/>
<stop offset="1" stop-color="#3D1A07"/>
</linearGradient>
<linearGradient id="paint3_linear_67_138" x1="381.845" y1="152.6" x2="381.845" y2="219.3" gradientUnits="userSpaceOnUse">
<stop stop-color="#FFF1F1"/>
<stop offset="1" stop-color="#424242"/>
</linearGradient>
<linearGradient id="paint4_linear_67_138" x1="421.583" y1="152.6" x2="421.583" y2="219.3" gradientUnits="userSpaceOnUse">
<stop stop-color="#FFF1F1"/>
<stop offset="1" stop-color="#424242"/>
</linearGradient>
<linearGradient id="paint5_linear_67_138" x1="461.322" y1="152.6" x2="461.322" y2="219.3" gradientUnits="userSpaceOnUse">
<stop stop-color="#FFF1F1"/>
<stop offset="1" stop-color="#424242"/>
</linearGradient>
<linearGradient id="paint6_linear_67_138" x1="501.061" y1="152.6" x2="501.061" y2="219.3" gradientUnits="userSpaceOnUse">
<stop stop-color="#FFF1F1"/>
<stop offset="1" stop-color="#424242"/>
</linearGradient>
<linearGradient id="paint7_linear_67_138" x1="540.799" y1="152.6" x2="540.799" y2="219.3" gradientUnits="userSpaceOnUse">
<stop stop-color="#FFF1F1"/>
<stop offset="1" stop-color="#424242"/>
</linearGradient>
<linearGradient id="paint8_linear_67_138" x1="580.538" y1="152.6" x2="580.538" y2="219.3" gradientUnits="userSpaceOnUse">
<stop stop-color="#FFF1F1"/>
<stop offset="1" stop-color="#424242"/>
</linearGradient>
<linearGradient id="paint9_linear_67_138" x1="620.875" y1="152.6" x2="620.875" y2="219.3" gradientUnits="userSpaceOnUse">
<stop stop-color="#FFF1F1"/>
<stop offset="1" stop-color="#424242"/>
</linearGradient>
<linearGradient id="paint10_linear_67_138" x1="660.613" y1="152.6" x2="660.613" y2="219.3" gradientUnits="userSpaceOnUse">
<stop stop-color="#FFF1F1"/>
<stop offset="1" stop-color="#424242"/>
</linearGradient>
<linearGradient id="paint11_linear_67_138" x1="700.352" y1="152.6" x2="700.352" y2="219.3" gradientUnits="userSpaceOnUse">
<stop stop-color="#FFF1F1"/>
<stop offset="1" stop-color="#424242"/>
</linearGradient>
<linearGradient id="paint12_linear_67_138" x1="740.09" y1="152.6" x2="740.09" y2="219.3" gradientUnits="userSpaceOnUse">
<stop stop-color="#FFF1F1"/>
<stop offset="1" stop-color="#424242"/>
</linearGradient>
<linearGradient id="paint13_linear_67_138" x1="779.829" y1="152.6" x2="779.829" y2="219.3" gradientUnits="userSpaceOnUse">
<stop stop-color="#FFF1F1"/>
<stop offset="1" stop-color="#424242"/>
</linearGradient>
<linearGradient id="paint14_linear_67_138" x1="819.568" y1="152.6" x2="819.568" y2="219.3" gradientUnits="userSpaceOnUse">
<stop stop-color="#FFF1F1"/>
<stop offset="1" stop-color="#424242"/>
</linearGradient>
<linearGradient id="paint15_linear_67_138" x1="859.306" y1="152.6" x2="859.306" y2="219.3" gradientUnits="userSpaceOnUse">
<stop stop-color="#FFF1F1"/>
<stop offset="1" stop-color="#424242"/>
</linearGradient>
<linearGradient id="paint16_linear_67_138" x1="899.044" y1="152.6" x2="899.044" y2="219.3" gradientUnits="userSpaceOnUse">
<stop stop-color="#FFF1F1"/>
<stop offset="1" stop-color="#424242"/>
</linearGradient>
<linearGradient id="paint17_linear_67_138" x1="938.783" y1="152.6" x2="938.783" y2="219.3" gradientUnits="userSpaceOnUse">
<stop stop-color="#FFF1F1"/>
<stop offset="1" stop-color="#424242"/>
</linearGradient>
<linearGradient id="paint18_linear_67_138" x1="978.522" y1="152.6" x2="978.522" y2="219.3" gradientUnits="userSpaceOnUse">
<stop stop-color="#FFF1F1"/>
<stop offset="1" stop-color="#424242"/>
</linearGradient>
<linearGradient id="paint19_linear_67_138" x1="1109.5" y1="141" x2="1109.5" y2="228" gradientUnits="userSpaceOnUse">
<stop stop-color="#803F1B"/>
<stop offset="1" stop-color="#3D1A07"/>
</linearGradient>
<linearGradient id="paint20_linear_67_138" x1="1018.26" y1="152.6" x2="1018.26" y2="219.3" gradientUnits="userSpaceOnUse">
<stop stop-color="#FFF1F1"/>
<stop offset="1" stop-color="#424242"/>
</linearGradient>
<linearGradient id="paint21_linear_67_138" x1="275.787" y1="123.569" x2="275.787" y2="245.431" gradientUnits="userSpaceOnUse">
<stop offset="0.9999" stop-color="#5B1A05"/>
<stop offset="1" stop-color="#B31919" stop-opacity="0"/>
<stop offset="1" stop-color="#D9D9D9" stop-opacity="0"/>
</linearGradient>
</defs>
</svg>
